<svg width="334" height="294" viewBox="0 0 334 294" fill="none" xmlns="http://www.w3.org/2000/svg">
<g clip-path="url(#clip0)">
<path d="M75.3171 77.0812H9.50256V33.8301H69.9988L75.3171 77.0812Z" fill="#EFEFEF"/>
<path d="M49.8008 53.1138C53.1052 53.1138 55.7839 50.4374 55.7839 47.136C55.7839 43.8346 53.1052 41.1582 49.8008 41.1582C46.4964 41.1582 43.8176 43.8346 43.8176 47.136C43.8176 50.4374 46.4964 53.1138 49.8008 53.1138Z" fill="#3F3D56"/>
<path d="M66.5009 21.6064C67.0681 20.9633 67.6556 20.3233 68.2472 19.7041L68.8666 20.2948C68.2824 20.9059 67.7027 21.5373 67.1431 22.1717L66.5009 21.6064Z" fill="#3F3D56"/>
<path d="M72.0376 16.055C73.3458 14.8952 74.7178 13.7766 76.1159 12.7305L76.6293 13.4148C75.2501 14.4472 73.8964 15.5507 72.6059 16.6949L72.0376 16.055ZM80.456 9.75515C81.9366 8.82798 83.4749 7.95142 85.0278 7.14963L85.4209 7.90965C83.8888 8.70045 82.3713 9.56511 80.9108 10.4797L80.456 9.75515ZM89.7999 4.93177C91.4108 4.26248 93.0719 3.65112 94.7375 3.11409L95.0005 3.92823C93.3569 4.45779 91.7179 5.06126 90.1286 5.72148L89.7999 4.93177ZM100.004 2.53653L99.8077 1.70412C101.512 1.30369 103.25 0.969203 104.974 0.709774L105.101 1.5557C103.4 1.81154 101.685 2.14152 100.004 2.53653ZM110.262 0.995417L110.205 0.142028C111.948 0.0253594 113.718 -0.0197905 115.465 0.00790771L115.451 0.863291C113.728 0.835758 111.982 0.880327 110.262 0.995403V0.995417ZM120.634 1.16144L120.719 0.310444C122.458 0.483117 124.212 0.731118 125.933 1.04752L125.778 1.88875C124.08 1.57648 122.35 1.33179 120.634 1.16143V1.16144ZM152.719 113.86C154.086 112.813 155.428 111.696 156.706 110.538L157.281 111.172C155.985 112.345 154.626 113.478 153.24 114.539L152.719 113.86ZM130.843 3.0384L131.067 2.21291C132.753 2.66963 134.442 3.20265 136.087 3.79712L135.795 4.60127C134.172 4.0149 132.506 3.48896 130.843 3.0384ZM160.406 106.898C161.583 105.641 162.722 104.318 163.793 102.967L164.464 103.498C163.379 104.867 162.224 106.208 161.031 107.482L160.406 106.898ZM140.602 6.56556L140.959 5.78763C142.548 6.51457 144.127 7.31602 145.651 8.1702L145.232 8.91602C143.728 8.07339 142.171 7.28247 140.602 6.56556ZM166.846 98.7713C167.803 97.3372 168.711 95.8461 169.546 94.3393L170.295 94.7538C169.449 96.2808 168.528 97.7921 167.559 99.2455L166.846 98.7713ZM149.653 11.637L150.131 10.9279C151.58 11.9035 153.007 12.9514 154.371 14.0424L153.836 14.7101C152.49 13.6336 151.083 12.5997 149.653 11.637ZM171.874 89.7016C172.583 88.1309 173.236 86.5115 173.813 84.8886L174.62 85.1752C174.034 86.8202 173.373 88.4613 172.654 90.0532L171.874 89.7016ZM157.752 18.1147L158.339 17.4932C159.61 18.6931 160.845 19.9597 162.01 21.258L161.373 21.829C160.223 20.5481 159.005 19.2986 157.752 18.1147ZM175.351 79.9327C175.794 78.2649 176.171 76.5604 176.474 74.8667L177.317 75.017C177.01 76.7338 176.627 78.4614 176.178 80.1518L175.351 79.9327ZM164.675 25.8286L165.357 25.312C166.412 26.7034 167.421 28.1554 168.356 29.6279L167.633 30.086C166.71 28.6334 165.715 27.2009 164.675 25.8286ZM177.174 69.7252C177.335 68.0106 177.426 66.2672 177.444 64.5436L178.3 64.5528C178.282 66.2998 178.19 68.067 178.026 69.8052L177.174 69.7252ZM170.229 34.577L170.988 34.1805C171.797 35.7251 172.553 37.3248 173.233 38.9347L172.445 39.2674C171.773 37.6791 171.028 36.1012 170.229 34.577ZM177.284 59.3576C177.159 57.643 176.961 55.909 176.695 54.2038L177.541 54.0719C177.811 55.8002 178.012 57.5578 178.138 59.2957L177.284 59.3576ZM174.266 44.1243L175.079 43.8572C175.624 45.5131 176.109 47.2199 176.518 48.9147L175.685 49.1151C175.282 47.4413 174.803 45.7586 174.266 44.1243Z" fill="#3F3D56"/>
<path d="M146.239 118.204C146.97 117.778 147.702 117.33 148.415 116.874L148.876 117.594C148.154 118.057 147.412 118.51 146.671 118.943L146.239 118.204Z" fill="#3F3D56"/>
<path d="M9.50256 63.555L22.619 50.4503L34.491 62.3113L57.0157 39.8066L75.4931 58.6191V77.0799H9.50256V63.555Z" fill="#67AAD5"/>
<path d="M224 184V269H334V184H224ZM319.636 206.731H311.116V198.263H319.636V206.731Z" fill="#3F3D56"/>
<path d="M54.5524 150.572H47.5134V159.715H54.5524V150.572Z" fill="#3F3D56"/>
<path d="M164.805 211.011L159.828 206.038L153.357 212.503L158.335 217.476L164.805 211.011Z" fill="#3F3D56"/>
<path d="M144.04 51.3674L139.063 46.3945L132.592 52.8593L137.57 57.8321L144.04 51.3674Z" fill="#3F3D56"/>
<path d="M232.288 241.379C231.898 242.143 231.488 242.909 231.069 243.655L230.322 243.237C230.736 242.5 231.141 241.745 231.525 240.991L232.288 241.379Z" fill="#3F3D56"/>
<path d="M228.305 248.131C227.326 249.579 226.275 251.003 225.181 252.364L224.513 251.828C225.593 250.486 226.63 249.081 227.595 247.652L228.305 248.131ZM221.716 256.323C220.513 257.588 219.24 258.819 217.935 259.981L217.366 259.342C218.653 258.196 219.908 256.982 221.096 255.734L221.716 256.323ZM213.864 263.313C212.47 264.361 211.013 265.366 209.533 266.299L209.076 265.576C210.536 264.655 211.974 263.664 213.349 262.63L213.864 263.313ZM204.575 268.166L204.972 268.923C203.421 269.734 201.821 270.489 200.215 271.168L199.881 270.381C201.466 269.711 203.045 268.965 204.575 268.166ZM195.022 272.204L195.289 273.016C193.63 273.562 191.926 274.045 190.227 274.452L190.028 273.62C191.704 273.219 193.384 272.742 195.022 272.204ZM184.934 274.617L185.063 275.462C183.335 275.727 181.574 275.922 179.829 276.042L179.77 275.189C181.492 275.07 183.229 274.878 184.934 274.617ZM125.839 173.411C124.774 174.764 123.753 176.18 122.802 177.618L122.088 177.147C123.051 175.689 124.087 174.254 125.166 172.883L125.839 173.411ZM174.578 275.332L174.566 276.187C172.819 276.163 171.051 276.066 169.31 275.898L169.392 275.047C171.11 275.212 172.855 275.308 174.578 275.332ZM120.123 182.062C119.296 183.572 118.521 185.136 117.82 186.711L117.037 186.363C117.748 184.767 118.534 183.182 119.372 181.651L120.123 182.062ZM164.247 274.337L164.096 275.179C162.375 274.869 160.647 274.485 158.958 274.035L159.179 273.209C160.845 273.652 162.55 274.032 164.247 274.337ZM115.905 191.532C115.335 193.159 114.826 194.829 114.391 196.496L113.563 196.28C114.003 194.591 114.519 192.898 115.097 191.25L115.905 191.532ZM154.22 271.67L153.932 272.476C152.287 271.89 150.644 271.229 149.052 270.511L149.404 269.731C150.975 270.44 152.596 271.093 154.22 271.67ZM113.289 201.566C112.993 203.263 112.763 204.994 112.607 206.709L111.754 206.632C111.913 204.893 112.145 203.139 112.446 201.419L113.289 201.566ZM144.765 267.405L144.35 268.153C142.821 267.306 141.309 266.386 139.858 265.417L140.333 264.706C141.765 265.661 143.256 266.569 144.765 267.405ZM112.35 211.891C112.336 213.617 112.393 215.361 112.521 217.077L111.667 217.141C111.538 215.402 111.479 213.633 111.494 211.884L112.35 211.891ZM136.141 261.651L135.608 262.321C134.241 261.235 132.903 260.078 131.631 258.884L132.217 258.261C133.472 259.439 134.792 260.58 136.141 261.651H136.141ZM113.121 222.231C113.391 223.932 113.736 225.643 114.147 227.318L113.316 227.521C112.899 225.824 112.549 224.09 112.276 222.365L113.121 222.231ZM128.586 254.555L127.95 255.127C126.781 253.832 125.652 252.47 124.592 251.079L125.274 250.561C126.319 251.933 127.433 253.277 128.586 254.555ZM115.592 232.301C116.139 233.931 116.762 235.562 117.444 237.147L116.657 237.485C115.966 235.878 115.334 234.225 114.78 232.573L115.592 232.301ZM122.302 246.308L121.581 246.769C120.641 245.3 119.748 243.767 118.93 242.227L119.687 241.826C120.493 243.347 121.375 244.859 122.302 246.308Z" fill="#3F3D56"/>
<path d="M131.035 167.594C130.433 168.189 129.835 168.804 129.258 169.423L128.632 168.84C129.217 168.213 129.823 167.589 130.433 166.986L131.035 167.594Z" fill="#3F3D56"/>
<path d="M316.806 188.38C316.725 188.248 314.821 185.071 314.161 178.474C313.555 172.421 313.944 162.219 319.24 147.988C329.273 121.028 316.928 99.2748 316.802 99.0581L317.411 98.7051C317.443 98.76 320.628 104.306 322.51 113.138C324.997 124.846 324.091 137.02 319.9 148.233C309.885 175.147 317.331 187.888 317.407 188.014L316.806 188.38Z" fill="#3F3D56"/>
<path d="M312.883 97.4755C315.41 97.4755 317.459 95.4289 317.459 92.9043C317.459 90.3796 315.41 88.333 312.883 88.333C310.356 88.333 308.308 90.3796 308.308 92.9043C308.308 95.4289 310.356 97.4755 312.883 97.4755Z" fill="#67AAD5"/>
<path d="M327.313 114.353C329.84 114.353 331.888 112.307 331.888 109.782C331.888 107.258 329.84 105.211 327.313 105.211C324.786 105.211 322.737 107.258 322.737 109.782C322.737 112.307 324.786 114.353 327.313 114.353Z" fill="#3F3D56"/>
<path d="M317.458 125.605C319.985 125.605 322.034 123.559 322.034 121.034C322.034 118.51 319.985 116.463 317.458 116.463C314.931 116.463 312.883 118.51 312.883 121.034C312.883 123.559 314.931 125.605 317.458 125.605Z" fill="#67AAD5"/>
<path d="M329.425 135.1C331.952 135.1 334 133.053 334 130.528C334 128.004 331.952 125.957 329.425 125.957C326.898 125.957 324.85 128.004 324.85 130.528C324.85 133.053 326.898 135.1 329.425 135.1Z" fill="#67AAD5"/>
<path d="M313.939 149.869C316.466 149.869 318.514 147.822 318.514 145.298C318.514 142.773 316.466 140.727 313.939 140.727C311.412 140.727 309.364 142.773 309.364 145.298C309.364 147.822 311.412 149.869 313.939 149.869Z" fill="#3F3D56"/>
<path d="M319.57 188.548C319.57 188.548 314.995 177.296 328.721 168.856L319.57 188.548Z" fill="#3F3D56"/>
<path d="M313.943 188.344C313.943 188.344 311.861 176.379 295.744 176.481L313.943 188.344Z" fill="#3F3D56"/>
<path d="M168.402 259.788C167.567 259.788 166.75 259.54 166.055 259.077C165.361 258.613 164.82 257.954 164.5 257.183C164.18 256.412 164.097 255.564 164.26 254.745C164.423 253.927 164.825 253.175 165.415 252.585C166.006 251.994 166.759 251.593 167.578 251.43C168.397 251.267 169.246 251.35 170.018 251.67C170.79 251.989 171.449 252.53 171.913 253.224C172.378 253.918 172.625 254.734 172.625 255.568C172.624 256.687 172.179 257.76 171.387 258.551C170.595 259.342 169.522 259.787 168.402 259.788ZM168.402 252.052C167.706 252.052 167.025 252.258 166.447 252.645C165.868 253.031 165.417 253.58 165.15 254.223C164.884 254.865 164.814 255.572 164.95 256.254C165.086 256.936 165.421 257.563 165.913 258.055C166.405 258.546 167.033 258.881 167.715 259.017C168.398 259.153 169.106 259.083 169.749 258.817C170.392 258.551 170.941 258.1 171.328 257.522C171.715 256.944 171.921 256.264 171.921 255.568C171.92 254.636 171.549 253.742 170.889 253.083C170.23 252.424 169.335 252.053 168.402 252.052Z" fill="#2F2E41"/>
<path d="M214.799 33.4387H207.851V26.4971H214.799V33.4387ZM208.385 32.9048H214.264V27.031H208.385V32.9048Z" fill="#3F3D56"/>
<path d="M25.3242 227.216L20.5852 222.14L25.666 217.405L30.4051 222.482L25.3242 227.216ZM21.3406 222.166L25.3506 226.462L29.6497 222.455L25.6397 218.16L21.3406 222.166Z" fill="#2F2E41"/>
<path d="M211.91 181.209H85.9762V130.419H190.728L211.91 181.209Z" fill="#EFEFEF"/>
<path d="M212.485 181.595H70.5717V119.262H186.75L186.848 119.5L212.485 181.595ZM71.3419 180.825H211.334L186.234 120.031H71.3419V180.825Z" fill="#3F3D56"/>
<path d="M169.547 138.5H106.773V144.272H169.547V138.5Z" fill="#67AAD5"/>
<path d="M169.547 150.428H106.773V156.199H169.547V150.428Z" fill="#67AAD5"/>
<path d="M169.547 162.356H106.773V168.128H169.547V162.356Z" fill="#67AAD5"/>
<path d="M105.385 85.52H0V21.5225H81.898L81.9827 21.753L105.385 85.52ZM0.703899 84.8167H104.377L81.4065 22.2257H0.703899V84.8167Z" fill="#3F3D56"/>
<path d="M75.6691 77.432H9.15063V27.8516H75.6691V77.432ZM9.85453 76.7288H74.9652V28.5548H9.85453V76.7288Z" fill="#3F3D56"/>
<path d="M104.881 91.4967C108.38 91.4967 111.216 88.663 111.216 85.1673C111.216 81.6717 108.38 78.8379 104.881 78.8379C101.382 78.8379 98.5459 81.6717 98.5459 85.1673C98.5459 88.663 101.382 91.4967 104.881 91.4967Z" fill="#67AAD5"/>
<path d="M211.17 187.844C214.668 187.844 217.505 185.011 217.505 181.515C217.505 178.019 214.668 175.186 211.17 175.186C207.671 175.186 204.835 178.019 204.835 181.515C204.835 185.011 207.671 187.844 211.17 187.844Z" fill="#67AAD5"/>
<path d="M256.599 94.9533C262.487 94.9533 267.259 90.1849 267.259 84.3028C267.259 78.4207 262.487 73.6523 256.599 73.6523C250.712 73.6523 245.939 78.4207 245.939 84.3028C245.939 90.1849 250.712 94.9533 256.599 94.9533Z" fill="#A0616A"/>
<path d="M249.27 89.4061C249.27 89.4061 252.824 97.3939 247.938 100.5C243.052 103.607 255.933 116.476 255.933 116.476L270.146 101.388C270.146 101.388 262.595 96.5064 263.928 88.5186L249.27 89.4061Z" fill="#A0616A"/>
<path d="M224.841 123.132L221.732 140.883C221.732 140.883 216.402 151.533 216.402 160.852C216.402 170.171 215.514 171.946 215.514 171.946C215.514 171.946 206.63 189.697 212.849 190.585C219.067 191.472 221.732 172.39 221.732 172.39C221.732 172.39 230.171 151.533 230.171 144.876L235.945 130.232L224.841 123.132Z" fill="#A0616A"/>
<path d="M289.245 124.019L290.134 139.55C290.134 139.55 293.243 147.538 291.022 161.739L289.245 175.496C289.245 175.496 293.243 191.028 289.245 191.471C285.248 191.915 280.362 181.708 283.027 175.939V171.058C283.027 171.058 280.362 150.201 281.25 146.651L278.141 129.788L289.245 124.019Z" fill="#A0616A"/>
<path d="M231.504 246.944L235.946 258.482L245.717 256.707L239.499 244.281L231.504 246.944Z" fill="#A0616A"/>
<path d="M273.699 256.262L272.367 273.125H283.471L283.027 258.481L273.699 256.262Z" fill="#A0616A"/>
<path d="M238.61 155.083L237.278 161.74C237.278 161.74 234.613 163.959 234.613 166.177C234.613 168.396 233.725 169.284 233.725 169.284C233.725 169.284 233.28 169.284 232.836 170.171C232.607 170.656 232.308 171.105 231.948 171.503C231.948 171.503 205.742 198.129 211.516 211.442C217.291 224.755 228.395 251.825 228.395 251.825C228.395 251.825 241.275 247.831 241.275 244.725L228.839 209.667L253.712 183.928L273.7 210.998C273.7 210.998 269.702 258.481 272.367 258.925C275.032 259.369 289.69 262.475 290.134 261.144C290.578 259.813 292.799 200.791 291.91 198.573C291.022 196.354 278.141 169.728 278.141 169.728C278.141 169.728 280.362 167.065 279.03 166.178C277.697 165.29 275.476 156.858 275.476 156.858C275.476 156.858 240.831 151.089 238.61 155.083Z" fill="#2F2E41"/>
<path d="M257.71 105.38L248.757 99.8637C248.757 99.8637 243.496 100.055 242.164 101.386C240.831 102.718 232.836 106.268 232.836 106.268C232.836 106.268 234.613 159.52 238.166 157.745C241.72 155.97 239.055 154.639 241.72 155.97C244.385 157.301 275.92 157.745 276.365 157.745C276.809 157.745 277.253 156.858 277.253 156.858L279.03 129.788L284.804 107.155L267.709 99.2969L257.71 105.38Z" fill="#D0CDE1"/>
<path d="M236.389 105.824H232.836C232.836 105.824 227.95 107.156 225.729 114.256C223.509 121.356 222.62 124.462 223.509 125.35C224.397 126.238 236.389 132.894 236.389 132.894V105.824Z" fill="#D0CDE1"/>
<path d="M278.586 106.713L284.804 107.157C284.804 107.157 292.799 125.795 290.578 126.682C288.357 127.57 275.476 134.227 275.476 132.895C275.476 131.564 278.586 106.713 278.586 106.713Z" fill="#D0CDE1"/>
<path d="M236.834 252.71L233.212 251.379L224.841 262.473C224.841 262.473 209.295 273.567 223.509 273.124C223.509 273.124 234.613 271.348 235.501 268.242C235.501 268.242 248.382 264.692 248.382 262.473C248.382 260.254 245.422 254.339 244.459 254.19C243.496 254.042 239.499 255.817 236.834 252.71Z" fill="#2F2E41"/>
<path d="M283.471 268.243C283.471 268.243 272.673 268.067 272.742 268.377C272.811 268.687 269.702 275.787 270.146 278.449C270.59 281.112 274.588 284.662 273.7 286.437C272.811 288.212 276.365 293.538 283.471 293.981C290.578 294.425 289.69 286.437 289.69 286.437L286.136 278.006L283.471 268.243Z" fill="#2F2E41"/>
<path d="M250.063 71.9751C249.53 72.4286 248.973 72.8541 248.396 73.2497C247.667 73.8535 246.995 74.5211 246.386 75.2447L245.698 76.0136C245.113 76.6679 244.493 77.4146 244.517 78.2915C244.526 78.6169 244.627 78.9327 244.666 79.2558C244.821 80.5377 244.037 81.9467 244.683 83.0654C244.869 83.3888 245.158 83.6417 245.364 83.9533C245.625 84.3528 245.741 84.8301 245.692 85.305C246.386 85.3335 246.955 84.7123 247.172 84.0536C247.39 83.3948 247.361 82.6832 247.467 81.9976C247.572 81.3121 247.87 80.5861 248.494 80.2809C249.824 79.6297 251.352 81.3229 252.772 80.9009C253.763 80.6063 254.286 79.3784 255.299 79.1725C256.025 79.0251 256.723 79.4558 257.398 79.761C258.072 80.0663 258.981 80.2076 259.458 79.6417C259.774 79.2671 259.807 78.6668 260.226 78.4122C260.728 78.1071 261.356 78.5319 261.736 78.9795C262.116 79.4272 262.536 79.9745 263.123 79.9582C263.902 79.9366 264.499 78.9001 265.238 79.146C266.073 79.4236 265.689 80.7579 266.195 81.4764C266.623 82.0839 267.52 82.0482 268.257 81.9478C268.381 81.9604 268.507 81.9413 268.621 81.8922C268.736 81.8432 268.837 81.7659 268.914 81.6675C268.99 81.5691 269.041 81.4528 269.06 81.3296C269.08 81.2063 269.068 81.0801 269.026 80.9628L268.718 76.8853C268.716 76.6042 268.655 76.3268 268.537 76.0715C268.323 75.6837 267.879 75.4872 267.578 75.1626C266.943 74.4802 266.974 73.2837 266.185 72.7874C265.775 72.5298 265.239 72.5375 264.833 72.2753C264.311 71.939 264.143 71.2654 263.778 70.764C263.255 70.0472 262.342 69.7148 261.459 69.6236C260.576 69.5325 259.685 69.6424 258.798 69.6135C256.995 69.5548 255.191 69.0476 253.379 69.3445C251.798 69.6035 251.134 70.944 250.063 71.9751Z" fill="#2F2E41"/>
</g>
<defs>
<clipPath id="clip0">
<rect width="334" height="294" fill="white"/>
</clipPath>
</defs>
</svg>
