<svg width="360" height="250" viewBox="0 0 360 250" fill="none" xmlns="http://www.w3.org/2000/svg">
<rect width="360" height="250" rx="10" fill="#EFEFEF"/>
<path d="M164.159 99.0252C164.224 99.7006 164.278 100.384 164.321 101.056L163.833 101.087C163.772 100.122 163.686 99.1402 163.581 98.1753L164.067 98.1222C164.1 98.4225 164.131 98.7235 164.159 99.0252ZM163.681 95.203L163.198 95.2778C163.049 94.3202 162.876 93.3524 162.684 92.4013L163.163 92.3042C163.357 93.2626 163.531 94.2377 163.681 95.203ZM164.443 103.997C164.462 104.976 164.458 105.966 164.431 106.942L163.943 106.929C163.969 105.96 163.973 104.977 163.954 104.007L164.443 103.997ZM162.513 89.4325L162.039 89.5514C161.803 88.6083 161.542 87.6602 161.264 86.734L161.733 86.5936C162.013 87.527 162.275 88.4822 162.513 89.4325ZM164.285 109.883C164.214 110.858 164.12 111.844 164.004 112.814L163.518 112.756C163.633 111.793 163.727 110.815 163.797 109.847L164.285 109.883ZM160.822 83.793L160.361 83.9551C160.039 83.0379 159.692 82.1179 159.33 81.2204L159.784 81.0375C160.149 81.9419 160.498 82.8689 160.822 83.793ZM163.588 115.729C163.427 116.694 163.243 117.667 163.038 118.622L162.56 118.52C162.763 117.572 162.946 116.606 163.105 115.649L163.588 115.729ZM158.619 78.333L158.175 78.5366C157.771 77.6554 157.341 76.7713 156.896 75.9086L157.331 75.6848C157.779 76.5539 158.212 77.4448 158.619 78.3329L158.619 78.333ZM162.353 121.494C162.104 122.44 161.829 123.394 161.536 124.33L161.069 124.184C161.36 123.255 161.633 122.308 161.88 121.369L162.353 121.494ZM155.925 73.1047L155.502 73.3485C155.02 72.5112 154.512 71.6718 153.99 70.8539L154.403 70.5909C154.928 71.4152 155.44 72.2609 155.925 73.1047L155.925 73.1047ZM152.766 68.1495L152.366 68.4309C151.807 67.6371 151.223 66.8472 150.631 66.0834L151.018 65.7841C151.614 66.5536 152.202 67.3494 152.766 68.1495L152.766 68.1495ZM149.163 63.5006L148.791 63.8173C148.163 63.0795 147.51 62.3459 146.849 61.6368L147.206 61.3032C147.873 62.0176 148.531 62.757 149.163 63.5006ZM155.558 137.773C155.063 138.614 154.54 139.456 154.004 140.276L153.594 140.009C154.126 139.194 154.645 138.359 155.137 137.525L155.558 137.773ZM145.151 59.197L144.809 59.5463C144.117 58.8689 143.399 58.1976 142.675 57.5505L143.001 57.186C143.73 57.8377 144.454 58.5143 145.151 59.197L145.151 59.197ZM152.337 142.705C151.765 143.498 151.168 144.289 150.561 145.055L150.178 144.752C150.78 143.991 151.373 143.207 151.94 142.42L152.337 142.705ZM140.761 55.2744L140.452 55.6537C139.699 55.0401 138.923 54.4362 138.145 53.8591L138.436 53.4662C139.22 54.0478 140.002 54.6561 140.761 55.2744ZM148.681 147.322C148.039 148.061 147.373 148.793 146.7 149.5L146.346 149.162C147.013 148.461 147.675 147.734 148.312 147.001L148.681 147.322ZM136.031 51.7657L135.758 52.1713C134.952 51.6289 134.124 51.0984 133.296 50.5938L133.55 50.1761C134.385 50.6844 135.22 51.2191 136.031 51.7657L136.031 51.7657ZM144.623 151.585C143.918 152.261 143.188 152.929 142.453 153.573L142.131 153.205C142.86 152.566 143.585 151.903 144.284 151.232L144.623 151.585ZM130.999 48.7013L130.764 49.1301C129.913 48.6634 129.039 48.2101 128.167 47.7831L128.382 47.3437C129.261 47.7744 130.141 48.2311 130.999 48.7013L130.999 48.7013ZM140.196 155.459C139.433 156.067 138.646 156.666 137.855 157.24L137.568 156.844C138.352 156.275 139.134 155.68 139.89 155.077L140.196 155.459ZM125.705 46.1074L125.511 46.5558C124.62 46.1692 123.708 45.798 122.8 45.4521L122.974 44.995C123.889 45.3434 124.808 45.7177 125.705 46.1074ZM120.194 44.0095L120.041 44.4741C119.118 44.1706 118.175 43.8847 117.238 43.624L117.37 43.1528C118.313 43.4155 119.264 43.7038 120.194 44.0095ZM130.384 161.912C129.524 162.37 128.641 162.815 127.761 163.234L127.551 162.792C128.424 162.377 129.3 161.935 130.154 161.48L130.384 161.912ZM114.508 42.4274L114.399 42.9042C113.454 42.6878 112.491 42.4903 111.536 42.3176L111.623 41.8362C112.586 42.0104 113.556 42.2095 114.508 42.4274ZM125.073 164.437C124.173 164.815 123.251 165.178 122.333 165.515L122.164 165.056C123.075 164.721 123.99 164.361 124.884 163.986L125.073 164.437ZM108.714 41.379L108.649 41.8638C107.69 41.7353 106.713 41.6275 105.745 41.5431L105.787 41.0559C106.763 41.1408 107.747 41.2495 108.714 41.3789L108.714 41.379ZM119.545 166.465C118.614 166.759 117.663 167.035 116.718 167.286L116.592 166.813C117.53 166.564 118.474 166.29 119.398 165.998L119.545 166.465ZM102.849 40.8679L102.829 41.3568C101.863 41.3168 100.88 41.2991 99.9071 41.3038L99.9046 40.8147C100.885 40.8099 101.875 40.8279 102.849 40.8679L102.849 40.8679ZM113.855 167.976C112.902 168.183 111.93 168.371 110.965 168.535L110.883 168.052C111.841 167.89 112.806 167.703 113.752 167.498L113.855 167.976ZM96.9615 40.8954L96.9861 41.3839C96.0172 41.4327 95.0366 41.504 94.0716 41.596L94.0251 41.1091C94.9975 41.0164 95.9855 40.9444 96.9615 40.8954ZM108.051 168.962C107.456 169.035 106.847 169.102 106.243 169.16C105.869 169.195 105.494 169.228 105.121 169.257L105.083 168.769C105.454 168.74 105.825 168.708 106.197 168.673C106.796 168.615 107.4 168.549 107.991 168.476L108.051 168.962ZM102.165 168.931L102.181 169.42C101.202 169.452 100.212 169.462 99.2367 169.449L99.243 168.96C100.211 168.973 101.194 168.963 102.165 168.931L102.165 168.931ZM87.1112 42.5774C86.1606 42.7662 85.7054 42.9446 84.7632 43.1771L84.6461 42.7022C85.5955 42.4681 86.319 42.276 87.2767 42.0856L87.1112 42.5774ZM96.3228 168.857L96.2943 169.345C95.3169 169.288 94.3296 169.207 93.3594 169.105L93.4104 168.619C94.3732 168.72 95.353 168.8 96.3228 168.857ZM81.9433 43.942C81.0113 44.2183 80.0752 44.519 79.1612 44.836L79.001 44.3739C79.922 44.0545 80.8653 43.7515 81.8043 43.4731L81.9433 43.942ZM90.5121 168.247L90.4388 168.731C89.4732 168.584 88.4974 168.413 87.5383 168.222L87.6338 167.743C88.5856 167.932 89.554 168.102 90.5121 168.247ZM76.4232 45.8573C75.522 46.2172 74.6178 46.6029 73.7353 47.0035L73.533 46.5584C74.4223 46.1545 75.3337 45.7657 76.2416 45.4029L76.4232 45.8573ZM84.7741 167.103L84.6565 167.578C83.7052 167.342 82.7471 167.081 81.8087 166.802L81.9482 166.333C82.8793 166.61 83.8302 166.869 84.7741 167.103ZM71.1031 48.2728C70.2409 48.7135 69.378 49.1797 68.5381 49.6585L68.2958 49.2335C69.1422 48.7509 70.0117 48.2812 70.8804 47.8373L71.1031 48.2728ZM79.1618 165.434L79.0007 165.896C78.0764 165.573 77.147 165.225 76.2385 164.861L76.4205 164.407C77.3221 164.769 78.2444 165.114 79.1618 165.434ZM66.0384 51.1606C65.2205 51.6784 64.4032 52.2223 63.6097 52.7771L63.3294 52.3763C64.1291 51.8171 64.9526 51.2692 65.7769 50.7475L66.0384 51.1606ZM73.73 163.255L73.5273 163.701C72.6376 163.295 71.7445 162.864 70.8731 162.418L71.0959 161.982C71.9608 162.425 72.8471 162.853 73.73 163.255ZM61.2564 54.5034C60.4865 55.096 59.722 55.7125 58.984 56.3359L58.6684 55.9625C59.412 55.3343 60.1823 54.7129 60.9581 54.1158L61.2564 54.5034ZM68.5235 160.59L68.281 161.015C67.4313 160.529 66.5819 160.018 65.7561 159.495L66.0178 159.082C66.8374 159.601 67.6804 160.108 68.5235 160.59ZM56.7971 58.2709C56.0846 58.931 55.3789 59.6149 54.6998 60.3041L54.3515 59.9607C55.0359 59.2664 55.7468 58.5772 56.4647 57.9121L56.7971 58.2709ZM63.5842 157.461L63.3039 157.862C62.504 157.303 61.7049 156.717 60.929 156.12L61.2272 155.732C61.9972 156.324 62.7903 156.906 63.5842 157.461ZM52.6967 62.4308C52.0472 63.1527 51.4064 63.8985 50.7922 64.6471L50.414 64.3368C51.0331 63.5825 51.6787 62.8312 52.333 62.1037L52.6967 62.4308ZM58.9521 153.898L58.6365 154.272C57.8889 153.64 57.1468 152.984 56.4308 152.321L56.7631 151.963C57.4736 152.62 58.2101 153.272 58.9521 153.898ZM48.9899 66.9477C48.4082 67.7265 47.8377 68.5278 47.2941 69.3291L46.8893 69.0544C47.437 68.2472 48.0119 67.4397 48.5981 66.655L48.9899 66.9477ZM54.6646 149.93L54.3164 150.273C53.6313 149.579 52.9523 148.858 52.298 148.132L52.6614 147.804C53.3108 148.526 53.9847 149.241 54.6646 149.93ZM50.7579 145.59L50.38 145.901C49.7608 145.147 49.1506 144.368 48.5661 143.585L48.958 143.293C49.538 144.069 50.1436 144.842 50.7579 145.59ZM47.2654 140.915L46.8604 141.19C46.3125 140.382 45.7765 139.551 45.2669 138.72L45.6839 138.464C46.1895 139.289 46.7215 140.113 47.2654 140.915ZM40.5306 82.2634C40.1816 83.1709 39.8493 84.0981 39.5429 85.0193L39.0789 84.8649C39.3876 83.9366 39.7224 83.0021 40.0741 82.0877L40.5306 82.2634ZM44.217 135.944L43.7887 136.18C43.3175 135.326 42.8601 134.45 42.4293 133.576L42.868 133.36C43.2955 134.227 43.7494 135.096 44.217 135.944ZM38.683 87.8187C38.4194 88.7535 38.1739 89.708 37.9534 90.6558L37.477 90.5449C37.6993 89.59 37.9466 88.6281 38.2124 87.6861L38.683 87.8187ZM41.6365 130.71L41.1884 130.905C40.7967 130.009 40.421 129.092 40.0719 128.181L40.5286 128.006C40.8751 128.91 41.2478 129.82 41.6365 130.71ZM37.3571 93.5167C37.181 94.4705 37.0249 95.4412 36.8931 96.4016L36.4086 96.3351C36.5414 95.3671 36.6987 94.3891 36.8761 93.4277L37.3571 93.5167ZM39.5464 125.254L39.0821 125.407C38.7749 124.479 38.4852 123.532 38.2213 122.591L38.6921 122.459C38.9541 123.393 39.2415 124.333 39.5464 125.254ZM36.5627 99.305C36.4752 100.27 36.409 101.251 36.3659 102.22L35.8774 102.199C35.9208 101.222 35.9874 100.233 36.0755 99.2608L36.5627 99.305ZM37.9672 119.628L37.4908 119.739C37.2702 118.787 37.0685 117.817 36.8916 116.856L37.3726 116.768C37.5483 117.721 37.7483 118.684 37.9672 119.628ZM36.3031 105.142C36.3043 106.109 36.3278 107.092 36.3732 108.063L35.8846 108.086C35.8389 107.108 35.8152 106.118 35.814 105.142L36.3031 105.142ZM36.9088 113.882L36.4244 113.949C36.3017 113.058 36.1956 112.148 36.1091 111.243L36.0884 111.023L36.5755 110.978L36.596 111.197C36.6818 112.094 36.7871 112.998 36.9088 113.882L36.9088 113.882Z" fill="#3F3D56"/>
<path d="M187.637 236.578H117.905C116.335 236.583 114.796 236.14 113.468 235.301C112.404 234.639 111.525 233.719 110.911 232.626C110.297 231.533 109.969 230.304 109.957 229.051V66.5324C109.957 62.379 113.523 59 117.905 59H134.293V60.4949C134.293 63.6854 137.041 66.281 140.418 66.281H163.521C164.821 66.2882 166.092 65.8928 167.158 65.1491C167.914 64.6276 168.534 63.9331 168.967 63.1236C169.4 62.314 169.633 61.4128 169.647 60.4949V59H187.637C192.019 59 195.585 62.379 195.585 66.5324V229.051C195.578 230.155 195.323 231.243 194.839 232.235C194.354 233.227 193.653 234.098 192.786 234.782C191.325 235.951 189.508 236.585 187.637 236.578ZM117.905 59.4577C113.775 59.4577 110.415 62.6315 110.415 66.5324V229.051C110.427 230.227 110.736 231.381 111.313 232.406C111.889 233.431 112.716 234.294 113.715 234.915C114.968 235.707 116.422 236.125 117.905 236.12H187.637C189.403 236.127 191.119 235.53 192.498 234.426C193.312 233.785 193.97 232.969 194.425 232.038C194.88 231.108 195.12 230.087 195.127 229.051V66.5324C195.127 62.6315 191.767 59.4577 187.637 59.4577H170.104V60.4949C170.091 61.4867 169.839 62.4608 169.372 63.3359C168.905 64.2109 168.235 64.9616 167.419 65.5252C166.276 66.3223 164.914 66.7462 163.521 66.7387H140.419C136.788 66.7387 133.835 63.9378 133.835 60.4949V59.4577H117.905Z" fill="#3F3D56"/>
<path d="M189.926 72.815V221.148C189.924 222.915 189.22 224.609 187.97 225.858C186.719 227.107 185.024 227.809 183.256 227.809H123.008C122.132 227.811 121.265 227.639 120.455 227.305C119.645 226.971 118.91 226.481 118.29 225.862C117.671 225.243 117.179 224.508 116.844 223.699C116.51 222.89 116.338 222.023 116.339 221.148V72.815C116.339 71.9396 116.511 71.0728 116.846 70.264C117.181 69.4552 117.673 68.7203 118.292 68.1013C118.911 67.4822 119.646 66.9912 120.456 66.6563C121.265 66.3213 122.132 66.1489 123.008 66.149H132.024V67.3046C132.024 68.7603 132.602 70.1564 133.632 71.1859C134.661 72.2154 136.058 72.794 137.514 72.7944H168.157C169.329 72.7969 170.471 72.4213 171.413 71.7235C171.603 71.5851 171.783 71.4337 171.953 71.2704C172.489 70.7585 172.916 70.143 173.207 69.4613C173.498 68.7796 173.648 68.0459 173.647 67.3046V66.149H183.256C184.132 66.1487 184.999 66.321 185.809 66.6559C186.618 66.9908 187.353 67.4818 187.973 68.1008C188.592 68.7199 189.083 69.4548 189.418 70.2637C189.753 71.0726 189.926 71.9396 189.926 72.815Z" fill="#5288AA"/>
<path d="M173.267 185.333H133V142H173.267V185.333ZM133.516 184.817H172.751V142.516H133.516V184.817Z" fill="white" fill-opacity="0.8"/>
<path d="M164.82 97.5359H138.384V98.0519H164.82V97.5359Z" fill="white" fill-opacity="0.8"/>
<path d="M164.82 104.56H138.384V105.076H164.82V104.56Z" fill="white" fill-opacity="0.8"/>
<path d="M164.82 111.583H138.384V112.099H164.82V111.583Z" fill="white" fill-opacity="0.8"/>
<path d="M130.42 236.639L130.175 236.547C130.121 236.527 124.747 234.469 122.229 229.802C119.712 225.136 120.944 219.517 120.957 219.461L121.015 219.205L121.261 219.297C121.315 219.318 126.689 221.376 129.206 226.042C131.724 230.709 130.491 236.327 130.478 236.383L130.42 236.639ZM122.632 229.585C124.761 233.531 129.007 235.553 130.083 236.015C130.288 234.862 130.93 230.201 128.803 226.259C126.677 222.318 122.428 220.292 121.352 219.83C121.147 220.983 120.506 225.644 122.632 229.585Z" fill="#3F3D56"/>
<path d="M124.153 228.166C128.677 230.886 130.42 236.29 130.42 236.29C130.42 236.29 124.827 237.283 120.303 234.562C115.779 231.842 114.036 226.438 114.036 226.438C114.036 226.438 119.629 225.445 124.153 228.166Z" fill="#67AAD5"/>
<path d="M174.865 232.573L167.996 232.116L170.286 242.413L178.07 239.21L174.865 232.573Z" fill="#FFB9B9"/>
<path d="M237.826 213.351L221.8 197.79L212.642 204.884L194.554 226.624L196.615 229.827L218.594 214.953L233.476 234.404L247.671 227.31L237.826 213.351Z" fill="#2F2E41"/>
<path opacity="0.1" d="M237.826 213.351L221.8 197.79L212.642 204.884L194.554 226.624L196.615 229.827L218.594 214.953L233.476 234.404L247.671 227.31L237.826 213.351Z" fill="black"/>
<path d="M239.2 223.649L237.139 225.251L220.426 219.53L216.534 217.928L208.749 219.53C208.749 219.53 208.749 213.122 216.076 213.351L223.631 215.182L232.56 215.868L239.2 223.649Z" fill="#FFB9B9"/>
<path d="M254.081 240.583L249.045 243.786H243.092L215.389 233.489L174.865 240.812L173.72 232.116L210.81 215.868L243.321 226.624L254.081 240.583Z" fill="#2F2E41"/>
<path d="M221.571 199.85L218.136 200.536L217.388 199.663C216.795 198.973 216.42 198.122 216.309 197.219C216.198 196.316 216.355 195.4 216.763 194.586L226.378 182C226.378 182 229.126 175.822 233.476 178.339C237.826 180.856 229.813 184.975 229.813 184.975L225.005 192.527L225.463 196.417L221.571 199.85Z" fill="#FFB9B9"/>
<path d="M243.321 184.975C248.252 184.975 252.25 180.979 252.25 176.05C252.25 171.122 248.252 167.126 243.321 167.126C238.389 167.126 234.392 171.122 234.392 176.05C234.392 180.979 238.389 184.975 243.321 184.975Z" fill="#FFB9B9"/>
<path d="M239.314 182.572L243.435 192.412L253.28 188.293C253.28 188.293 250.075 180.513 250.075 180.284C250.075 180.055 239.314 182.572 239.314 182.572Z" fill="#FFB9B9"/>
<path d="M266.424 211.683C266.424 217.069 265.575 222.422 263.908 227.544L263.239 229.598L260.034 244.244L256.6 245.159L254.081 241.956L249.045 238.294L245.381 232.345L242.24 227.113L241.26 225.479L237.826 208.317L224.776 200.994L220.426 200.307L221.342 197.79L225.234 192.527L229.126 192.069L230.271 191.154L231.186 191.611L234.85 189.552L235.994 190.01L242.689 190.632L246.755 189.781L252.602 186.643L254.997 187.035L263.239 193.9C265.346 199.592 266.425 205.613 266.424 211.683Z" fill="#575A89"/>
<path d="M170.104 236.117C170.104 236.117 172.155 232.643 171.289 232.237C170.423 231.832 166.744 230.215 166.744 230.215L161.35 228.428C161.35 228.428 153.566 216.866 153.396 226.921C153.225 236.976 159.063 239.393 159.063 239.393C159.063 239.393 164.27 250.593 167.22 248.807C170.169 247.021 173.121 240.958 173.121 240.958C173.121 240.958 167.802 238.1 170.104 236.117Z" fill="#2F2E41"/>
<path opacity="0.1" d="M263.926 209.69L255.226 215.411L242.24 227.113L241.26 225.479L238.513 211.749H239.2L246.297 198.705L263.926 209.69Z" fill="black"/>
<path d="M246.297 197.332L239.2 210.376H236.681L235.078 214.953L231.415 215.868L241.26 226.624L255.226 214.038L263.926 208.317L246.297 197.332Z" fill="#575A89"/>
<path d="M236.376 169.415L235.408 169.787C235.259 169.686 235.132 169.557 235.034 169.406C234.936 169.256 234.869 169.087 234.837 168.91C234.804 168.734 234.808 168.552 234.847 168.377C234.886 168.202 234.959 168.036 235.063 167.889L233.275 167.806C234.423 166.278 235.882 165.011 237.556 164.089C239.23 163.167 241.081 162.611 242.986 162.458C244.891 162.304 246.808 162.557 248.608 163.199C250.408 163.841 252.051 164.858 253.429 166.182C253.51 165.902 254.398 166.447 254.76 167C254.882 166.544 255.714 168.748 256.008 170.306C256.144 169.787 256.668 170.624 256.209 171.428C256.5 171.386 256.631 172.129 256.406 172.543C256.724 172.394 256.67 173.282 256.326 173.875C256.779 173.834 252.746 180.092 251.113 183.748C250.638 181.571 250.105 179.277 248.576 177.655C248.316 177.379 248.032 177.128 247.747 176.877L246.21 175.521C244.423 173.945 242.798 171.999 240.417 171.409C238.781 171.004 237.746 170.913 238.638 169.07C237.832 169.406 237.08 169.906 236.267 170.218C236.278 169.96 236.391 169.672 236.376 169.415Z" fill="#2F2E41"/>
<path d="M247.785 178.682C248.67 178.682 249.388 177.965 249.388 177.08C249.388 176.196 248.67 175.478 247.785 175.478C246.9 175.478 246.183 176.196 246.183 177.08C246.183 177.965 246.9 178.682 247.785 178.682Z" fill="#FFB9B9"/>
<path d="M277.365 139.957C274.583 139.968 271.825 139.428 269.252 138.369C262.074 135.379 257.32 128.938 252.723 122.71C250.241 119.347 247.674 115.87 244.743 112.943C240.045 108.252 234.595 105.221 228.983 104.178C222.675 103.006 216.247 104.522 211.788 108.232C211.224 108.701 210.693 109.209 210.198 109.751C210.849 109.83 211.498 109.914 212.145 110.004C218.952 110.947 227.49 113.562 229.505 120.667C230.278 123.394 229.728 126.481 227.995 129.136C226.138 131.982 223.184 133.938 220.091 134.37C219.587 134.44 219.079 134.475 218.57 134.475C213.001 134.475 207.514 130.337 205.889 124.649C204.513 119.832 205.901 114.22 209.287 110.104C205.194 109.638 201.079 109.382 196.96 109.339L196.965 108.881C201.202 108.926 205.434 109.194 209.643 109.685C210.213 109.036 210.832 108.432 211.495 107.88C216.057 104.084 222.626 102.532 229.066 103.728C234.771 104.788 240.303 107.862 245.067 112.619C248.023 115.571 250.599 119.062 253.091 122.438C257.861 128.901 262.367 135.005 269.428 137.947C276.526 140.904 285.241 139.559 291.115 134.6C296.99 129.641 299.775 121.278 298.045 113.789L298.491 113.686C300.258 121.337 297.413 129.883 291.411 134.95C287.532 138.224 282.439 139.957 277.365 139.957ZM209.83 110.168C206.399 114.187 204.968 119.759 206.329 124.524C208.041 130.518 214.187 134.731 220.028 133.916C222.991 133.503 225.826 131.622 227.611 128.886C229.272 126.342 229.801 123.391 229.064 120.792C227.117 113.925 218.755 111.381 212.082 110.457C211.334 110.354 210.583 110.257 209.83 110.168Z" fill="#3F3D56"/>
<path d="M99.9183 137.035C97.863 137.042 95.8132 136.82 93.8068 136.375C88.8176 135.302 84.335 132.582 81.0812 128.653C80.0073 127.368 79.0291 125.924 78.0832 124.528C76.6472 122.41 75.1624 120.219 73.3384 118.589C71.5235 116.967 69.1339 116.113 67.104 116.36C66.3657 116.444 65.655 116.689 65.0219 117.078C64.3889 117.467 63.849 117.99 63.4404 118.611L63.0621 118.353C63.5068 117.678 64.0943 117.109 64.7832 116.686C65.472 116.263 66.2453 115.997 67.0485 115.905C69.2375 115.639 71.7043 116.514 73.6436 118.247C75.5097 119.915 77.0108 122.13 78.4623 124.272C79.4019 125.658 80.3735 127.092 81.4327 128.36C87.6099 135.753 97.4215 138.336 108.353 135.448L108.47 135.89C105.68 136.638 102.806 137.023 99.9183 137.035Z" fill="#3F3D56"/>
<path d="M269.253 236.314H90V236.803H269.253V236.314Z" fill="#3F3D56"/>
<path d="M60.6464 122.293C63.2125 122.293 65.2928 120.213 65.2928 117.646C65.2928 115.08 63.2125 113 60.6464 113C58.0803 113 56 115.08 56 117.646C56 120.213 58.0803 122.293 60.6464 122.293Z" fill="#D8400B"/>
<path d="M153 151L155.919 159.983H165.364L157.723 165.534L160.641 174.517L153 168.966L145.359 174.517L148.277 165.534L140.636 159.983H150.081L153 151Z" fill="#3F3D56"/>
<path d="M295.053 111.236C294.544 116.536 297.881 121.192 297.881 121.192C297.881 121.192 302.041 117.255 302.549 111.955C303.058 106.656 299.721 102 299.721 102C299.721 102 295.561 105.937 295.053 111.236Z" fill="#3F3D56"/>
<path d="M213.533 177.388H207.593V171.459H213.533V177.388ZM208.05 176.932H213.077V171.915H208.05V176.932Z" fill="#3F3D56"/>
<path d="M57.552 214.05L53.5001 209.715L57.8442 205.671L61.8961 210.007L57.552 214.05ZM54.146 209.737L57.5745 213.406L61.2502 209.984L57.8217 206.316L54.146 209.737Z" fill="#2F2E41"/>
<path d="M60.7615 126.488C59.0286 126.488 57.3347 125.975 55.8939 125.014C54.453 124.054 53.3301 122.688 52.6669 121.09C52.0038 119.492 51.8303 117.734 52.1684 116.038C52.5064 114.342 53.3409 112.784 54.5662 111.561C55.7915 110.338 57.3526 109.505 59.0522 109.168C60.7517 108.831 62.5134 109.004 64.1143 109.666C65.7153 110.327 67.0836 111.448 68.0464 112.886C69.0091 114.324 69.5229 116.015 69.5229 117.744C69.5203 120.062 68.5964 122.285 66.9539 123.924C65.3114 125.563 63.0843 126.485 60.7615 126.488ZM60.7615 109.673C59.1619 109.673 57.5983 110.146 56.2683 111.033C54.9383 111.92 53.9017 113.18 53.2896 114.655C52.6775 116.13 52.5173 117.753 52.8294 119.319C53.1414 120.884 53.9117 122.322 55.0427 123.451C56.1738 124.58 57.6149 125.349 59.1837 125.66C60.7525 125.972 62.3786 125.812 63.8564 125.201C65.3342 124.59 66.5973 123.555 67.486 122.228C68.3746 120.901 68.849 119.34 68.849 117.744C68.8465 115.604 67.9936 113.553 66.4775 112.039C64.9613 110.526 62.9056 109.675 60.7615 109.673Z" fill="#2F2E41"/>
<path d="M282 47H179V81H282V47Z" fill="#3F3D56"/>
<path d="M206.5 55L208.633 61.5643H215.535L209.951 65.6213L212.084 72.1857L206.5 68.1287L200.916 72.1857L203.049 65.6213L197.465 61.5643H204.367L206.5 55Z" fill="white" fill-opacity="0.8"/>
<path d="M231.5 55L233.633 61.5643H240.535L234.951 65.6213L237.084 72.1857L231.5 68.1287L225.916 72.1857L228.049 65.6213L222.465 61.5643H229.367L231.5 55Z" fill="white" fill-opacity="0.8"/>
<path d="M256.5 55L258.633 61.5643H265.535L259.951 65.6213L262.084 72.1857L256.5 68.1287L250.916 72.1857L253.049 65.6213L247.465 61.5643H254.367L256.5 55Z" fill="white" fill-opacity="0.8"/>
<path d="M204.5 55L206.633 61.5643H213.535L207.951 65.6213L210.084 72.1857L204.5 68.1287L198.916 72.1857L201.049 65.6213L195.465 61.5643H202.367L204.5 55Z" fill="#67AAD5"/>
<path d="M229.5 55L231.633 61.5643H238.535L232.951 65.6213L235.084 72.1857L229.5 68.1287L223.916 72.1857L226.049 65.6213L220.465 61.5643H227.367L229.5 55Z" fill="#67AAD5"/>
<path d="M254.5 55L256.633 61.5643H263.535L257.951 65.6213L260.084 72.1857L254.5 68.1287L248.916 72.1857L251.049 65.6213L245.465 61.5643H252.367L254.5 55Z" fill="#67AAD5"/>
</svg>
