<svg width="360" height="250" viewBox="0 0 360 250" fill="none" xmlns="http://www.w3.org/2000/svg">
<rect width="360" height="250" rx="10" fill="#EFEFEF"/>
<g clip-path="url(#clip0)">
<path d="M106.119 166.313C105.441 166.313 104.755 166.302 104.083 166.281L104.098 165.793C105.064 165.823 106.05 165.831 107.02 165.818L107.027 166.307C106.725 166.311 106.422 166.313 106.119 166.313ZM109.97 166.2L109.941 165.712C110.908 165.655 111.888 165.574 112.853 165.473L112.904 165.959C111.932 166.061 110.945 166.142 109.97 166.2ZM101.143 166.124C100.167 166.049 99.1811 165.951 98.2122 165.832L98.272 165.347C99.2334 165.464 100.212 165.562 101.18 165.636L101.143 166.124ZM115.825 165.586L115.752 165.102C116.713 164.956 117.681 164.787 118.63 164.599L118.725 165.078C117.769 165.268 116.794 165.439 115.825 165.586ZM95.2988 165.407C94.3351 165.244 93.3623 165.056 92.4075 164.849L92.5112 164.37C93.4587 164.576 94.424 164.763 95.3805 164.924L95.2988 165.407ZM121.6 164.438L121.482 163.963C122.426 163.73 123.374 163.472 124.302 163.197L124.441 163.666C123.506 163.943 122.55 164.203 121.6 164.438ZM89.5451 164.158C88.5998 163.906 87.6485 163.63 86.7176 163.335L86.8649 162.869C87.7888 163.161 88.7328 163.435 89.6707 163.685L89.5451 164.158ZM127.244 162.763L127.084 162.302C127.999 161.983 128.92 161.639 129.821 161.278L130.003 161.733C129.095 162.096 128.167 162.443 127.244 162.763H127.244ZM83.9236 162.38C83.0055 162.043 82.0817 161.679 81.178 161.298L81.3678 160.847C82.2646 161.225 83.1813 161.586 84.0925 161.921L83.9236 162.38ZM132.705 160.578L132.502 160.133C133.381 159.734 134.265 159.307 135.129 158.866L135.352 159.301C134.481 159.746 133.591 160.176 132.705 160.578H132.705ZM137.938 157.904L137.695 157.479C138.539 156.998 139.381 156.492 140.197 155.975L140.458 156.388C139.636 156.909 138.788 157.419 137.938 157.904H137.938ZM142.908 154.759L142.628 154.359C143.422 153.804 144.214 153.223 144.983 152.632L145.281 153.02C144.506 153.615 143.708 154.2 142.908 154.759ZM68.3632 154.071C67.5738 153.497 66.7853 152.896 66.0193 152.285L66.3244 151.903C67.0846 152.51 67.8672 153.106 68.6505 153.675L68.3632 154.071ZM147.573 151.174L147.258 150.8C147.998 150.175 148.734 149.524 149.447 148.865L149.779 149.224C149.061 149.889 148.319 150.544 147.573 151.174H147.573ZM63.7596 150.395C63.0244 149.751 62.294 149.081 61.5888 148.404L61.9274 148.051C62.6274 148.723 63.3522 149.388 64.0818 150.027L63.7596 150.395ZM151.895 147.176L151.547 146.833C152.229 146.141 152.904 145.426 153.552 144.706L153.916 145.033C153.262 145.759 152.582 146.48 151.895 147.176ZM59.5113 146.317C58.8367 145.608 58.1706 144.875 57.5313 144.138L57.9007 143.818C58.5351 144.549 59.1962 145.276 59.8657 145.98L59.5113 146.317ZM155.837 142.801L155.459 142.49C156.075 141.74 156.682 140.966 157.263 140.189L157.655 140.482C157.07 141.265 156.458 142.045 155.837 142.801L155.837 142.801ZM55.6529 141.872C55.0471 141.107 54.4507 140.317 53.88 139.524L54.2769 139.238C54.8433 140.025 55.4352 140.809 56.0364 141.569L55.6529 141.872ZM159.365 138.083L158.961 137.808C159.506 137.005 160.04 136.178 160.548 135.351L160.965 135.607C160.453 136.44 159.915 137.273 159.365 138.083L159.365 138.083ZM52.2167 137.097C51.6838 136.28 51.1622 135.44 50.6663 134.598L51.0876 134.35C51.5798 135.185 52.0974 136.019 52.6262 136.83L52.2167 137.097ZM162.45 133.059L162.022 132.823C162.492 131.973 162.948 131.101 163.379 130.229L163.817 130.446C163.383 131.324 162.923 132.203 162.45 133.059ZM165.062 127.772L164.614 127.576C165.004 126.686 165.378 125.774 165.727 124.867L166.183 125.042C165.832 125.957 165.455 126.875 165.062 127.772ZM46.7252 126.717C46.3503 125.817 45.9912 124.896 45.6581 123.98L46.1178 123.813C46.4483 124.722 46.8046 125.636 47.1766 126.529L46.7252 126.717ZM167.177 122.262L166.713 122.108C167.018 121.189 167.306 120.249 167.569 119.314L168.04 119.446C167.775 120.388 167.485 121.336 167.177 122.262ZM44.7159 121.19C44.4249 120.258 44.1515 119.306 43.9032 118.36L44.3763 118.236C44.6227 119.175 44.8941 120.12 45.1828 121.045L44.7159 121.19ZM168.771 116.594L168.295 116.483C168.514 115.541 168.714 114.578 168.89 113.622L169.371 113.711C169.194 114.674 168.992 115.644 168.771 116.594V116.594ZM43.2222 115.495C43.0182 114.54 42.8336 113.567 42.6736 112.602L43.156 112.522C43.3149 113.479 43.4981 114.445 43.7005 115.393L43.2222 115.495ZM169.837 110.804L169.352 110.737C169.484 109.779 169.595 108.803 169.683 107.834L170.17 107.878C170.082 108.854 169.97 109.838 169.837 110.804V110.804ZM42.2583 109.687C42.1429 108.719 42.0482 107.733 41.9767 106.756L42.4646 106.72C42.5354 107.69 42.6295 108.668 42.744 109.629L42.2583 109.687ZM170.369 104.941L169.88 104.919C169.924 103.95 169.946 102.967 169.946 101.997H170.435C170.435 102.974 170.413 103.964 170.369 104.941ZM41.8285 103.815C41.8118 103.216 41.8033 102.604 41.8032 101.997C41.8032 101.621 41.8064 101.245 41.8129 100.87L42.302 100.879C42.2955 101.251 42.2923 101.624 42.2923 101.997C42.2924 102.599 42.3009 103.207 42.3174 103.802L41.8285 103.815ZM42.4181 97.9589L41.9299 97.9284C41.9909 96.9511 42.0752 95.9641 42.1802 94.9946L42.6664 95.0473C42.5622 96.0095 42.4787 96.989 42.418 97.9589H42.4181ZM169.63 94.9751C169.533 94.0108 169.398 93.5407 169.256 92.5807L169.74 92.5093C169.883 93.4766 170.006 94.215 170.104 95.1865L169.63 94.9751ZM43.0472 92.1502L42.5638 92.0755C42.7137 91.1079 42.8878 90.1327 43.0814 89.1766L43.5607 89.2736C43.3687 90.2224 43.1959 91.1902 43.0472 92.1502ZM168.763 89.7009C168.576 88.7468 168.366 87.7864 168.137 86.8465L168.612 86.7309C168.843 87.678 169.055 88.6458 169.243 89.6071L168.763 89.7009ZM44.2057 86.4236L43.7313 86.3047C43.9688 85.3574 44.2319 84.4023 44.5132 83.4657L44.9815 83.6063C44.7024 84.5358 44.4414 85.4837 44.2057 86.4236ZM167.381 84.0238C167.108 83.0925 166.81 82.1558 166.495 81.2392L166.957 81.0801C167.275 82.0038 167.575 82.9479 167.85 83.8862L167.381 84.0238ZM45.8894 80.8202L45.428 80.658C45.753 79.7335 46.1039 78.8045 46.471 77.8968L46.9245 78.0803C46.5602 78.9808 46.2119 79.9028 45.8894 80.8202ZM165.481 78.4983C165.124 77.5982 164.742 76.6949 164.345 75.8133L164.792 75.6124C165.192 76.5008 165.577 77.4111 165.936 78.318L165.481 78.4983ZM48.0846 75.3919L47.6401 75.1877C48.0486 74.2981 48.4834 73.406 48.9323 72.5363L49.367 72.7605C48.9214 73.6237 48.4899 74.509 48.0846 75.3919ZM163.088 73.1823C162.65 72.3188 162.186 71.4536 161.709 70.6109L162.135 70.37C162.615 71.2192 163.083 72.091 163.524 72.9611L163.088 73.1823ZM50.769 70.1916L50.3451 69.9475C50.833 69.1003 51.3475 68.2523 51.8744 67.4272L52.2866 67.6903C51.7638 68.5092 51.253 69.3508 50.769 70.1916ZM160.214 68.1043C159.697 67.2816 159.156 66.462 158.606 65.6682L159.007 65.3895C159.562 66.1894 160.108 67.0152 160.628 67.8442L160.214 68.1043ZM53.917 65.2618L53.5173 64.98C54.0811 64.1803 54.6706 63.3833 55.2698 62.611L55.6562 62.9107C55.0617 63.6773 54.4765 64.4682 53.917 65.2618ZM156.887 63.3073C156.298 62.5354 155.684 61.7679 155.062 61.0264L155.437 60.7122C156.064 61.4595 156.682 62.2327 157.276 63.0105L156.887 63.3073ZM57.5005 60.642L57.1282 60.3249C57.7609 59.5817 58.4204 58.842 59.0882 58.1262L59.4457 58.4599C58.783 59.1702 58.1285 59.9044 57.5005 60.642ZM153.136 58.8304C152.479 58.1152 151.797 57.4064 151.11 56.7239L151.455 56.3769C152.147 57.0648 152.834 57.7789 153.496 58.4994L153.136 58.8304ZM61.4877 56.3693L61.1458 56.0196C61.8451 55.3354 62.5689 54.659 63.2966 54.0092L63.6224 54.3741C62.9001 55.0189 62.1819 55.6902 61.4877 56.3693ZM148.991 54.7113C148.271 54.0582 147.528 53.4141 146.782 52.7969L147.094 52.4201C147.845 53.042 148.594 53.6909 149.32 54.349L148.991 54.7113ZM65.8452 52.4781L65.5364 52.0989C66.2928 51.4829 67.0746 50.8753 67.8601 50.2931L68.1514 50.6859C67.3718 51.2639 66.5959 51.8667 65.8452 52.4781ZM70.5361 49.0013L70.2631 48.5956C71.0727 48.0508 71.9062 47.5174 72.7405 47.0098L72.9946 47.4278C72.1667 47.9314 71.3396 48.4609 70.5361 49.0013ZM75.5219 45.9686L75.2871 45.5394C76.1436 45.0708 77.0219 44.6161 77.8974 44.1877L78.1123 44.6272C77.2435 45.0521 76.3719 45.5034 75.5219 45.9686ZM134.548 44.8354C133.678 44.4018 132.787 43.983 131.899 43.5905L132.096 43.1432C132.991 43.5386 133.89 43.9607 134.767 44.3977L134.548 44.8354ZM80.7605 43.4062L80.5661 42.9575C81.4612 42.5695 82.3769 42.1974 83.2875 41.8515L83.4611 42.3088C82.5574 42.652 81.6488 43.0212 80.7605 43.4062ZM129.194 42.4685C128.288 42.1173 127.361 41.7823 126.439 41.4728L126.594 41.009C127.524 41.321 128.458 41.6586 129.37 42.0126L129.194 42.4685ZM86.2161 41.3346L86.0637 40.8699C86.9932 40.5651 87.9415 40.2782 88.8822 40.0173L89.013 40.4885C88.0794 40.7475 87.1384 41.0321 86.2161 41.3346ZM123.647 40.6074C122.715 40.3415 121.763 40.0938 120.82 39.8714L120.932 39.3954C121.883 39.6195 122.841 39.8691 123.782 40.1369L123.647 40.6074ZM91.846 39.7722L91.7371 39.2954C92.69 39.0777 93.6607 38.8793 94.622 38.706L94.7089 39.1872C93.7548 39.3594 92.7916 39.5561 91.846 39.7722ZM117.961 39.2667C117.008 39.0879 116.038 38.9289 115.077 38.794L115.145 38.3096C116.113 38.4456 117.091 38.6059 118.051 38.786L117.961 39.2667ZM97.5959 38.7345L97.5312 38.2497C98.4993 38.1205 99.4839 38.0118 100.458 37.9271L100.5 38.4142C99.5339 38.4985 98.5569 38.6063 97.5959 38.7345ZM112.175 38.4539C111.211 38.3631 110.231 38.2932 109.26 38.2462L109.284 37.7576C110.262 37.805 111.25 37.8755 112.221 37.967L112.175 38.4539ZM103.417 38.2267L103.396 37.7381C104.295 37.7006 105.211 37.6815 106.119 37.6812L106.341 37.6816L106.339 38.1707L106.119 38.1703C105.218 38.1705 104.309 38.1895 103.417 38.2267V38.2267Z" fill="#3F3D56"/>
<path d="M184.809 70.0473V228.563C184.807 230.451 184.056 232.262 182.72 233.596C181.385 234.931 179.574 235.681 177.686 235.682H113.333C112.397 235.683 111.471 235.5 110.606 235.143C109.741 234.786 108.956 234.262 108.294 233.601C107.632 232.939 107.107 232.154 106.75 231.29C106.392 230.425 106.208 229.499 106.209 228.563V70.0473C106.209 69.1118 106.393 68.1854 106.751 67.3211C107.109 66.4568 107.634 65.6714 108.296 65.0099C108.957 64.3484 109.742 63.8237 110.607 63.4657C111.471 63.1078 112.397 62.9236 113.333 62.9236H122.963V64.1586C122.963 65.7142 123.581 67.2061 124.68 68.3063C125.78 69.4065 127.272 70.0249 128.827 70.0253H161.558C162.81 70.028 164.029 69.6266 165.035 68.8808C165.238 68.7329 165.431 68.5711 165.612 68.3966C166.185 67.8496 166.641 67.1919 166.952 66.4633C167.263 65.7348 167.423 64.9507 167.422 64.1586V62.9236H177.686C178.621 62.9234 179.548 63.1074 180.412 63.4653C181.276 63.8232 182.062 64.3479 182.723 65.0095C183.385 65.671 183.91 66.4565 184.268 67.3209C184.625 68.1853 184.81 69.1117 184.809 70.0473Z" fill="#3F3D56"/>
<path d="M175.401 110.739H115.618V156.225H175.401V110.739Z" fill="#67AAD5"/>
<path d="M84.1365 103.075C89.4592 103.189 93.6934 107.046 93.6934 107.046C93.6934 107.046 89.2977 110.718 83.9749 110.604C78.6522 110.49 74.418 106.633 74.418 106.633C74.418 106.633 78.8137 102.961 84.1365 103.075Z" fill="#67AAD5"/>
<path d="M57.3763 84.9055C62.1852 87.1901 67.6995 85.6409 67.6995 85.6409C67.6995 85.6409 65.417 80.3876 60.6081 78.103C55.7992 75.8184 50.2849 77.3676 50.2849 77.3676C50.2849 77.3676 52.5674 82.6209 57.3763 84.9055Z" fill="#67AAD5"/>
<path d="M57.8651 82.6352C63.167 82.1506 67.8078 85.5078 67.8078 85.5078C67.8078 85.5078 63.8525 89.6506 58.5506 90.1351C53.2487 90.6197 48.6079 87.2625 48.6079 87.2625C48.6079 87.2625 52.5632 83.1197 57.8651 82.6352Z" fill="#3F3D56"/>
<path d="M77.3002 83.5531C76.792 88.8528 80.1285 93.5085 80.1285 93.5085C80.1285 93.5085 84.2889 89.5716 84.7971 84.272C85.3052 78.9723 81.9688 74.3166 81.9688 74.3166C81.9688 74.3166 77.8084 78.2534 77.3002 83.5531Z" fill="#3F3D56"/>
<path d="M102.27 116.056C99.4887 120.596 100.445 126.243 100.445 126.243C100.445 126.243 105.911 124.53 108.692 119.99C111.473 115.45 110.516 109.802 110.516 109.802C110.516 109.802 105.05 111.516 102.27 116.056Z" fill="#3F3D56"/>
<path d="M94.2018 165.417L94.6071 165.144C93.1786 163.071 92.3986 160.62 92.3663 158.102C92.3776 154.42 94.1863 151.014 95.9355 147.721C96.2602 147.109 96.5838 146.5 96.8951 145.891C98.2018 143.407 99.2431 140.793 100.002 138.091C102.715 128.009 100.044 116.113 92.8563 106.27C87.1546 98.4623 78.655 91.6346 66.8722 85.397L66.6434 85.8292C78.3591 92.0313 86.8043 98.8121 92.4613 106.559C99.5623 116.283 102.205 128.023 99.5295 137.964C98.7796 140.633 97.7506 143.215 96.4597 145.668C96.1494 146.275 95.827 146.882 95.5035 147.491C93.7265 150.837 91.8889 154.298 91.8772 158.101C91.9095 160.716 92.7187 163.263 94.2018 165.417Z" fill="#3F3D56"/>
<path d="M43.6465 86.0396C46.2127 86.0396 48.2929 83.9594 48.2929 81.3932C48.2929 78.8271 46.2127 76.7468 43.6465 76.7468C41.0804 76.7468 39.0001 78.8271 39.0001 81.3932C39.0001 83.9594 41.0804 86.0396 43.6465 86.0396Z" fill="#D8400B"/>
<path d="M109.054 156.815L79.8866 154.385V111.606L109.054 110.148V156.815Z" fill="#67AAD5"/>
<path d="M181.965 156.815L211.132 154.385V111.606L181.965 110.148V156.815Z" fill="#67AAD5"/>
<path d="M155.648 127.812C154.78 127.062 153.71 126.585 152.573 126.44C151.435 126.296 150.28 126.49 149.253 126.999C148.36 127.43 147.4 127.705 146.414 127.811C146.39 125.676 146.782 123.556 147.568 121.571L147.697 121.238H145.983L145.934 121.418C145.743 122.12 145.592 122.832 145.483 123.552C145.39 123.24 145.27 122.937 145.124 122.646C143.922 120.262 141.144 119.287 141.026 119.247L140.789 119.166L140.713 119.404C140.676 119.523 139.808 122.337 141.011 124.721C141.872 126.428 143.54 127.412 144.462 127.848C143.295 127.773 142.155 127.468 141.107 126.951C140.453 126.614 139.718 126.468 138.986 126.53C138.253 126.592 137.553 126.859 136.965 127.301C133.764 129.733 131.928 133.298 131.928 137.082C131.928 142.054 135.148 146.606 140.13 148.68C140.579 148.867 141.061 148.963 141.548 148.962C142.224 148.962 142.887 148.78 143.468 148.435C144.24 147.986 145.117 147.749 146.011 147.747C146.904 147.745 147.782 147.979 148.557 148.425C149.057 148.72 149.619 148.895 150.199 148.936C150.779 148.977 151.36 148.883 151.897 148.66C156.851 146.578 160.051 142.033 160.051 137.082C160.051 133.539 158.487 130.246 155.648 127.812ZM146.357 121.727H146.987C146.279 123.623 145.918 125.631 145.921 127.655H145.809C145.657 125.662 145.843 123.658 146.357 121.727ZM141.448 124.5C140.535 122.691 140.935 120.533 141.112 119.805C141.802 120.095 143.773 121.053 144.688 122.866C145.6 124.676 145.2 126.833 145.023 127.561C144.332 127.27 142.36 126.31 141.448 124.5ZM151.708 148.21C151.241 148.403 150.736 148.484 150.232 148.449C149.728 148.413 149.239 148.26 148.805 148.003C147.955 147.513 146.991 147.256 146.01 147.258C145.029 147.26 144.066 147.521 143.218 148.015C142.784 148.273 142.297 148.427 141.793 148.464C141.29 148.501 140.785 148.421 140.318 148.229C135.518 146.231 132.417 141.856 132.417 137.082C132.417 133.452 134.183 130.029 137.261 127.69C137.851 127.244 138.571 127.004 139.311 127.005C139.858 127.005 140.397 127.135 140.883 127.386C142.222 128.025 143.686 128.361 145.171 128.37C146.655 128.379 148.123 128.06 149.47 127.437C150.412 126.971 151.47 126.793 152.512 126.926C153.554 127.059 154.534 127.496 155.329 128.183C158.059 130.523 159.562 133.684 159.562 137.082C159.562 141.836 156.479 146.203 151.708 148.21Z" fill="white"/>
<path d="M94.3902 123.19V122.616H94.6184V120.827C94.6193 120.694 94.5837 120.564 94.5155 120.45C94.4473 120.337 94.3492 120.244 94.2319 120.182C93.2225 119.655 92.1378 119.656 91.0079 120.185C90.8831 120.244 90.7778 120.337 90.7041 120.454C90.6304 120.571 90.5914 120.706 90.5916 120.844V122.616H90.8198V123.135C89.9799 123.371 89.2404 123.875 88.7147 124.571C88.1891 125.267 87.9063 126.117 87.9097 126.989V130.859L88.3443 131.004L87.9097 131.294V132.457L88.3443 132.602L87.9097 132.892V134.055L88.3443 134.199L87.9097 134.489V143.347C87.9105 144.038 88.1853 144.701 88.6739 145.189C89.1624 145.678 89.8248 145.953 90.5158 145.954H94.3577C95.0471 145.953 95.708 145.679 96.1955 145.191C96.683 144.704 96.9572 144.043 96.958 143.353V134.489L96.5233 134.199L96.958 134.055V132.892L96.5233 132.602L96.958 132.457V131.294L96.5233 131.004L96.958 130.859V126.789C96.9551 125.997 96.7065 125.226 96.2466 124.581C95.7867 123.936 95.1381 123.45 94.3902 123.19ZM91.2149 120.628C92.2138 120.161 93.1268 120.157 94.0055 120.616C94.0433 120.637 94.0747 120.667 94.0966 120.704C94.1184 120.741 94.1297 120.784 94.1293 120.827V121.784H91.0807V120.844C91.0803 120.799 91.0927 120.755 91.1164 120.716C91.1402 120.678 91.1743 120.647 91.2149 120.628ZM96.4689 130.507L95.42 130.856L96.4689 131.556V132.104L95.42 132.454L96.4689 133.153V133.702L95.42 134.052L96.4689 134.751V143.353C96.4682 143.913 96.2456 144.45 95.8498 144.846C95.454 145.241 94.9174 145.464 94.3577 145.465H90.5158C89.9545 145.464 89.4164 145.241 89.0195 144.844C88.6226 144.447 88.3994 143.909 88.3988 143.347V134.751L89.4477 134.052L88.3988 133.702V133.153L89.4477 132.454L88.3988 132.104V131.556L89.4477 130.856L88.3988 130.507V126.989C88.3957 126.194 88.6635 125.421 89.158 124.799C89.6525 124.176 90.3443 123.74 91.1195 123.563L91.3089 123.519V122.616H93.9011V123.552L94.0775 123.603C94.7659 123.806 95.3705 124.226 95.8014 124.8C96.2322 125.374 96.4663 126.071 96.4689 126.789V130.507Z" fill="white"/>
<path d="M209.343 129.887L208.112 129.641L208.402 129.061L207.837 128.948L207.935 128.361L207.318 128.258V127.701L206.818 127.558L207.293 126.965H206.468L206.641 126.535L206.031 126.433L206.238 125.708H205.579V125.032H205.334C204.564 125.032 204.134 125.947 203.993 126.314C199.74 127.055 187.39 135.609 185.981 136.593C185.395 136.403 184.527 136.848 184.345 136.947L184.058 137.104L184.472 137.518L184.349 137.888L185.109 138.173L184.942 138.589L185.421 138.988L184.991 139.311L185.638 139.699L185.524 140.266L186.247 140.37V140.938L186.667 141.022L186.457 141.755H186.923V142.335H187.378L187.584 142.952L187.796 142.91C188.288 142.811 188.709 142.131 188.874 141.829C192.97 141.098 205.616 132.2 206.847 131.329C208.284 131.501 208.812 131.117 208.869 131.072L209.103 130.885L208.544 130.42L209.343 129.887ZM206.816 130.832L206.721 130.819L206.642 130.875C206.502 130.974 192.633 140.8 188.679 141.365L188.553 141.383L188.495 141.498C188.344 141.807 188.139 142.087 187.89 142.325L187.731 141.846H187.412V141.266H187.106L187.283 140.646L186.736 140.537V139.946L186.106 139.855L186.185 139.457L185.866 139.265L186.209 139.008L185.528 138.441L185.748 137.891L184.962 137.596L185.032 137.386L184.88 137.234C185.248 137.081 185.692 136.968 185.883 137.082L186.019 137.164L186.149 137.072C186.288 136.975 200.063 127.34 204.208 126.775L204.362 126.754L204.408 126.605C204.48 126.374 204.733 125.789 205.09 125.59V126.197H205.59L205.41 126.826L205.961 126.917L205.746 127.454H206.275L205.977 127.827L206.829 128.07V128.672L207.372 128.763L207.277 129.335L207.678 129.415L207.388 129.995L208.089 130.135L207.728 130.376L208.247 130.809C207.776 130.905 207.29 130.912 206.816 130.832Z" fill="white"/>
<path d="M145.509 177.011C149.426 177.011 152.601 173.836 152.601 169.919C152.601 166.003 149.426 162.827 145.509 162.827C141.593 162.827 138.417 166.003 138.417 169.919C138.417 173.836 141.593 177.011 145.509 177.011Z" fill="#67AAD5"/>
<path d="M149.974 169.219H146.21V165.454H144.809V169.219H141.044V170.62H144.809V174.384H146.21V170.62H149.974V169.219Z" fill="white"/>
<path d="M167.877 170.164L164.209 168.452V169.43H155.649V170.897H164.209V171.876L167.877 170.164Z" fill="white"/>
<path d="M123.142 170.164L126.81 168.452V169.43H135.369V170.897H126.81V171.876L123.142 170.164Z" fill="white"/>
<path d="M269.253 235.314H90V235.803H269.253V235.314Z" fill="#3F3D56"/>
<path d="M168.986 76.7467H122.033V77.2358H168.986V76.7467Z" fill="white"/>
<path d="M169.099 210.27H122.146V210.759H169.099V210.27Z" fill="white"/>
<path d="M244.542 161.972L243.32 166.618C243.32 166.618 238.918 176.4 243.32 176.889C247.722 177.378 247.966 164.172 247.966 164.172L244.542 161.972Z" fill="#A0616A"/>
<path d="M252.123 128.469L243.32 163.194C243.32 163.194 246.743 164.172 248.455 165.395L252.123 128.469Z" fill="#D0CDE1"/>
<path d="M279.757 154.88L282.203 192.784C282.203 192.784 288.072 207.702 287.827 221.886C287.827 221.886 285.626 227.51 287.338 228.488C289.05 229.467 290.028 230.2 289.05 230.934C288.072 231.668 287.338 233.379 288.072 233.868C288.805 234.358 289.05 235.091 288.805 235.091H281.469C281.469 235.091 282.936 231.423 280.735 230.445C278.534 229.467 279.757 227.021 279.757 227.021L263.372 179.09L250.411 223.108C250.411 223.108 252.612 224.576 250.901 225.309C249.189 226.043 248.455 224.576 249.189 226.043C249.922 227.51 248.944 228.244 248.944 228.488C248.944 228.733 241.608 227.755 241.608 227.755C241.608 227.755 245.276 224.576 243.564 223.842C241.852 223.108 241.119 222.375 241.608 221.886C242.097 221.397 244.053 216.75 244.053 216.75C244.053 216.75 245.031 199.143 245.276 198.409C245.52 197.675 245.276 194.252 245.276 192.54C245.276 190.828 245.031 183.981 245.765 182.269C246.499 180.557 247.232 159.526 251.145 157.081C255.058 154.635 279.757 154.88 279.757 154.88Z" fill="#2F2E41"/>
<path d="M248.7 227.266C248.7 227.266 253.591 237.292 250.167 238.515C246.743 239.738 242.341 238.759 241.363 240.227C240.385 241.694 229.625 243.406 229.38 239.738C229.136 236.069 241.119 229.222 241.119 229.222L242.68 226.709L248.7 227.266Z" fill="#2F2E41"/>
<path d="M288.316 234.602C288.316 234.602 293.207 244.629 289.784 245.851C286.36 247.074 281.958 246.096 280.98 247.563C280.002 249.03 269.242 250.742 268.997 247.074C268.753 243.406 280.735 236.558 280.735 236.558L282.296 234.045L288.316 234.602Z" fill="#2F2E41"/>
<path d="M265.696 108.782C270.153 108.782 273.766 105.169 273.766 100.712C273.766 96.2554 270.153 92.6423 265.696 92.6423C261.239 92.6423 257.626 96.2554 257.626 100.712C257.626 105.169 261.239 108.782 265.696 108.782Z" fill="#A0616A"/>
<path d="M271.198 104.992L270.22 112.084L262.884 117.708L260.927 115.018V105.726L271.198 104.992Z" fill="#A0616A"/>
<path d="M259.704 114.04C259.704 114.04 267.285 114.774 271.198 112.084L279.024 158.303C279.024 158.303 251.39 160.504 250.167 159.037V144.609L255.058 121.132L259.704 114.04Z" fill="#3F3D56"/>
<path d="M270.525 109.874L273.154 112.084C273.154 112.084 283.914 113.796 283.181 116.73L280.246 151.456L281.224 163.194C281.224 163.194 272.91 160.993 266.552 163.194C260.193 165.395 265.245 115.898 265.245 115.898C265.245 115.898 271.074 110.599 270.525 109.874Z" fill="#D0CDE1"/>
<path d="M260.927 112.551C260.927 112.551 253.102 118.198 252.123 121.866C251.145 125.534 247.966 164.172 247.966 164.172C247.966 164.172 249.433 163.439 250.167 164.662C250.901 165.884 262.15 114.485 260.927 112.551Z" fill="#D0CDE1"/>
<path d="M282.447 163.683L280.694 169.404C280.694 169.404 280.246 180.068 274.377 178.601C268.508 177.133 276.089 164.662 276.089 164.662L277.801 161.972L282.447 163.683Z" fill="#A0616A"/>
<path d="M257.629 100.361C257.629 100.361 256.756 99.0503 257.092 97.6391C257.293 96.8378 257.372 96.011 257.327 95.1862C257.327 95.1862 258.033 92.9013 258.738 91.6244C259.444 90.3476 259.108 89.81 261.326 89.4067C263.543 89.0035 262.636 86.1138 268.483 89.2387C268.68 89.5141 268.954 89.725 269.271 89.8446C269.588 89.9642 269.934 89.9872 270.264 89.9108C271.473 89.6755 271.91 91.3556 271.91 91.3556C271.91 91.3556 272.716 90.8852 273.019 91.5572C273.321 92.2292 275.478 91.1539 275.478 95.6901C275.478 100.226 273.024 104.278 273.024 104.278C273.024 104.278 273.204 96.6478 269.205 95.875C265.207 95.1022 260.906 92.8509 259.864 95.7406C259.302 97.3624 258.552 98.913 257.629 100.361Z" fill="#2F2E41"/>
<path d="M273.111 102.175C273.547 102.175 273.9 101.704 273.9 101.123C273.9 100.543 273.547 100.072 273.111 100.072C272.676 100.072 272.323 100.543 272.323 101.123C272.323 101.704 272.676 102.175 273.111 102.175Z" fill="#A0616A"/>
<path d="M281.225 115.018C281.225 115.018 285.137 114.04 286.36 120.643C287.583 127.246 289.05 146.076 289.05 146.076L283.181 165.884C283.181 165.884 277.312 162.705 276.089 163.194L280.708 145.997L276.823 128.468C276.823 128.468 280.246 115.018 281.225 115.018Z" fill="#D0CDE1"/>
<path opacity="0.15" d="M275.535 128.803L280.671 145.921L275.535 163.284L278.47 145.921L275.535 128.803Z" fill="black"/>
</g>
<defs>
<clipPath id="clip0">
<rect x="39" y="37.6812" width="252" height="211.589" fill="white"/>
</clipPath>
</defs>
</svg>
