<svg width="360" height="250" viewBox="0 0 360 250" fill="none" xmlns="http://www.w3.org/2000/svg">
<rect width="360" height="250" rx="10" fill="#EFEFEF"/>
<path d="M211.449 207.965C210.614 207.965 209.771 207.952 208.943 207.926L208.962 207.326C210.151 207.363 211.364 207.374 212.558 207.357L212.566 207.958C212.195 207.963 211.822 207.965 211.449 207.965ZM216.187 207.826L216.152 207.227C217.342 207.157 218.548 207.058 219.736 206.934L219.799 207.531C218.602 207.656 217.387 207.756 216.187 207.826ZM205.326 207.733C204.125 207.641 202.912 207.521 201.72 207.375L201.793 206.779C202.976 206.923 204.18 207.043 205.371 207.134L205.326 207.733ZM223.392 207.072L223.302 206.479C224.485 206.299 225.677 206.091 226.844 205.86L226.961 206.449C225.785 206.682 224.584 206.892 223.392 207.072ZM198.135 206.852C196.949 206.652 195.752 206.421 194.577 206.167L194.705 205.58C195.871 205.832 197.058 206.061 198.235 206.26L198.135 206.852ZM230.498 205.663L230.353 205.08C231.514 204.793 232.682 204.476 233.823 204.139L233.995 204.715C232.844 205.055 231.668 205.374 230.498 205.663ZM191.055 205.318C189.892 205.01 188.721 204.67 187.576 204.308L187.757 203.736C188.894 204.095 190.055 204.431 191.21 204.738L191.055 205.318ZM237.444 203.606L237.246 203.039C238.373 202.648 239.506 202.225 240.615 201.783L240.838 202.34C239.721 202.786 238.579 203.212 237.444 203.606ZM184.138 203.136C183.008 202.721 181.871 202.274 180.759 201.807L180.993 201.253C182.096 201.717 183.224 202.161 184.345 202.572L184.138 203.136ZM244.163 200.923L243.914 200.376C244.996 199.886 246.083 199.362 247.146 198.82L247.42 199.355C246.349 199.901 245.253 200.429 244.163 200.923ZM177.447 200.324C176.361 199.808 175.271 199.258 174.207 198.691L174.491 198.162C175.546 198.724 176.628 199.27 177.705 199.782L177.447 200.324ZM250.602 197.638L250.304 197.117C251.342 196.526 252.377 195.904 253.382 195.27L253.704 195.778C252.691 196.417 251.648 197.043 250.602 197.638ZM171.047 196.912C170.014 196.299 168.98 195.652 167.973 194.99L168.304 194.489C169.303 195.145 170.33 195.787 171.355 196.396L171.047 196.912ZM256.717 193.777L256.373 193.285C257.35 192.603 258.325 191.89 259.271 191.164L259.638 191.641C258.685 192.372 257.702 193.091 256.717 193.777ZM164.991 192.931C164.019 192.227 163.049 191.489 162.106 190.738L162.482 190.269C163.417 191.014 164.38 191.746 165.344 192.445L164.991 192.931ZM262.458 189.374L262.07 188.914C262.981 188.147 263.887 187.348 264.764 186.539L265.173 186.98C264.289 187.795 263.376 188.601 262.458 189.374ZM159.326 188.417C158.421 187.626 157.522 186.804 156.655 185.972L157.071 185.539C157.933 186.364 158.824 187.18 159.722 187.965L159.326 188.417ZM267.776 184.464L267.348 184.043C268.187 183.194 269.018 182.315 269.816 181.431L270.263 181.833C269.459 182.724 268.622 183.609 267.776 184.464ZM154.098 183.41C153.268 182.539 152.449 181.638 151.662 180.734L152.116 180.34C152.897 181.238 153.711 182.131 154.534 182.996L154.098 183.41ZM272.627 179.091L272.162 178.71C272.921 177.789 273.667 176.838 274.382 175.884L274.864 176.244C274.144 177.205 273.391 178.163 272.627 179.091ZM149.351 177.951C148.605 177.011 147.871 176.041 147.169 175.067L147.657 174.716C148.354 175.682 149.083 176.645 149.822 177.579L149.351 177.951ZM276.969 173.297L276.471 172.96C277.142 171.973 277.799 170.958 278.425 169.942L278.938 170.257C278.307 171.28 277.645 172.303 276.969 173.297ZM145.122 172.087C144.466 171.084 143.825 170.051 143.214 169.018L143.733 168.713C144.338 169.738 144.975 170.763 145.626 171.758L145.122 172.087ZM280.765 167.129L280.238 166.838C280.816 165.795 281.377 164.723 281.907 163.653L282.447 163.919C281.913 164.997 281.347 166.077 280.765 167.129ZM141.45 165.866C140.888 164.807 140.344 163.721 139.832 162.637L140.376 162.381C140.885 163.456 141.425 164.534 141.982 165.585L141.45 165.866ZM283.979 160.635L283.428 160.394C283.907 159.301 284.368 158.182 284.796 157.067L285.358 157.283C284.926 158.406 284.462 159.534 283.979 160.635ZM138.365 159.339C137.904 158.234 137.462 157.104 137.052 155.979L137.618 155.773C138.024 156.89 138.463 158.012 138.92 159.108L138.365 159.339ZM286.581 153.869L286.01 153.68C286.386 152.551 286.74 151.396 287.063 150.249L287.643 150.411C287.317 151.568 286.96 152.731 286.581 153.869ZM135.893 152.553C135.535 151.408 135.198 150.239 134.893 149.077L135.475 148.924C135.778 150.077 136.112 151.238 136.467 152.374L135.893 152.553ZM288.543 146.908L287.957 146.772C288.226 145.615 288.472 144.433 288.689 143.259L289.281 143.368C289.063 144.55 288.814 145.741 288.543 146.908ZM134.054 145.559C133.804 144.386 133.576 143.19 133.379 142.006L133.973 141.907C134.169 143.083 134.394 144.269 134.643 145.433L134.054 145.559ZM289.854 139.798L289.258 139.716C289.42 138.54 289.556 137.34 289.664 136.151L290.264 136.205C290.155 137.404 290.017 138.612 289.854 139.798V139.798ZM132.868 138.426C132.727 137.237 132.61 136.026 132.522 134.827L133.122 134.783C133.209 135.974 133.325 137.175 133.466 138.355L132.868 138.426ZM290.509 132.597L289.908 132.57C289.961 131.38 289.988 130.173 289.988 128.983H290.59C290.59 130.182 290.563 131.398 290.509 132.597L290.509 132.597ZM132.34 131.215C132.319 130.479 132.309 129.728 132.308 128.983C132.308 128.521 132.312 128.059 132.32 127.599L132.922 127.609C132.914 128.066 132.91 128.524 132.91 128.983C132.91 129.722 132.921 130.468 132.941 131.199L132.34 131.215ZM289.984 128.145C289.972 126.954 289.932 125.747 289.866 124.557L290.466 124.524C290.533 125.723 290.573 126.939 290.586 128.138L289.984 128.145ZM133.065 124.024L132.464 123.986C132.539 122.786 132.643 121.574 132.772 120.383L133.371 120.448C133.242 121.63 133.14 122.832 133.065 124.024ZM289.584 120.98C289.464 119.796 289.314 118.598 289.14 117.419L289.735 117.331C289.911 118.519 290.062 119.726 290.183 120.919L289.584 120.98ZM133.839 116.89L133.244 116.798C133.429 115.61 133.643 114.413 133.881 113.239L134.471 113.358C134.235 114.523 134.022 115.711 133.839 116.89ZM288.532 113.882C288.303 112.711 288.044 111.531 287.762 110.377L288.347 110.235C288.631 111.398 288.892 112.587 289.123 113.767L288.532 113.882ZM135.265 109.858L134.681 109.712C134.973 108.548 135.297 107.375 135.643 106.225L136.219 106.398C135.876 107.539 135.555 108.703 135.265 109.858ZM286.831 106.911C286.496 105.767 286.129 104.617 285.741 103.491L286.31 103.296C286.701 104.43 287.071 105.589 287.409 106.742L286.831 106.911ZM137.336 102.976L136.769 102.777C137.169 101.642 137.601 100.501 138.052 99.3865L138.61 99.6117C138.162 100.718 137.733 101.85 137.336 102.976ZM284.494 100.125C284.055 99.0197 283.585 97.9104 283.097 96.8278L283.646 96.5812C284.138 97.6721 284.612 98.79 285.054 99.9037L284.494 100.125ZM140.038 96.3103L139.491 96.0596C139.993 94.9671 140.528 93.8716 141.081 92.8035L141.616 93.0789C141.067 94.1389 140.537 95.2261 140.038 96.3103ZM281.549 93.5968C281.01 92.5365 280.44 91.4739 279.853 90.4391L280.376 90.1432C280.968 91.1861 281.543 92.2567 282.085 93.3252L281.549 93.5968ZM143.341 89.9241L142.819 89.6244C143.42 88.584 144.053 87.5425 144.701 86.5293L145.208 86.8525C144.565 87.8581 143.936 88.8916 143.341 89.9241ZM278.013 87.3609C277.377 86.3505 276.711 85.344 276.034 84.3692L276.528 84.0269C277.211 85.0092 277.882 86.0234 278.523 87.0415L278.013 87.3609ZM147.215 83.8702L146.723 83.5241C147.416 82.5421 148.142 81.5633 148.879 80.6148L149.355 80.9829C148.623 81.9243 147.903 82.8956 147.215 83.8702ZM273.919 81.47C273.194 80.522 272.439 79.5795 271.674 78.6689L272.135 78.2831C272.906 79.2008 273.667 80.1503 274.398 81.1055L273.919 81.47ZM151.624 78.1969L151.166 77.8074C151.944 76.8947 152.756 75.9863 153.578 75.1074L154.018 75.5171C153.202 76.3894 152.397 77.2911 151.624 78.1969ZM269.303 75.9721C268.495 75.0939 267.656 74.2234 266.811 73.3852L267.235 72.9591C268.087 73.8039 268.932 74.6808 269.746 75.5656L269.303 75.9721ZM156.53 72.9497L156.109 72.5204C156.97 71.6801 157.861 70.8494 158.756 70.0514L159.157 70.4995C158.268 71.2914 157.384 72.1158 156.53 72.9497V72.9497ZM264.203 70.9136C263.317 70.1117 262.403 69.3207 261.485 68.5627L261.868 68.1C262.793 68.8637 263.715 69.6606 264.608 70.4688L264.203 70.9136ZM161.892 68.1712L161.512 67.7055C162.443 66.949 163.405 66.2029 164.371 65.4879L164.73 65.9703C163.771 66.6801 162.816 67.4205 161.892 68.1712V68.1712ZM258.661 66.3372C257.705 65.6188 256.722 64.914 255.738 64.2422L256.077 63.7466C257.069 64.4233 258.06 65.1335 259.023 65.8574L258.661 66.3372ZM167.664 63.9016L167.328 63.4033C168.325 62.7343 169.35 62.0793 170.377 61.4559L170.689 61.9692C169.671 62.5877 168.653 63.2379 167.664 63.9016V63.9016ZM252.721 62.2825C251.704 61.6543 250.659 61.042 249.617 60.4622L249.91 59.9375C250.96 60.5217 252.013 61.1389 253.038 61.7716L252.721 62.2825ZM173.799 60.1773L173.51 59.6502C174.564 59.0747 175.645 58.5163 176.722 57.9903L176.987 58.5299C175.918 59.0518 174.845 59.606 173.799 60.1773ZM246.431 58.7857C245.361 58.2532 244.264 57.7388 243.171 57.2568L243.414 56.7075C244.515 57.1932 245.621 57.7115 246.7 58.2481L246.431 58.7857ZM180.245 57.0306L180.006 56.4795C181.108 56.0031 182.234 55.5461 183.355 55.1213L183.568 55.683C182.457 56.1044 181.339 56.5578 180.245 57.0306H180.245ZM239.842 55.879C238.728 55.4478 237.588 55.0363 236.452 54.6562L236.644 54.0867C237.788 54.4698 238.937 54.8844 240.06 55.3192L239.842 55.879ZM186.958 54.4865L186.771 53.9158C187.915 53.5416 189.082 53.1892 190.239 52.8688L190.4 53.4475C189.251 53.7655 188.093 54.1151 186.958 54.4865ZM233.018 53.5935C231.87 53.267 230.699 52.9628 229.538 52.6896L229.676 52.1051C230.846 52.3804 232.026 52.6869 233.183 53.0158L233.018 53.5935ZM193.886 52.5678L193.752 51.9823C194.925 51.7149 196.119 51.4714 197.302 51.2584L197.409 51.8494C196.235 52.0608 195.05 52.3025 193.886 52.5678ZM226.02 51.9471C224.848 51.7275 223.655 51.5322 222.472 51.3665L222.556 50.7718C223.747 50.9388 224.95 51.1356 226.131 51.3567L226.02 51.9471ZM200.961 51.2935L200.882 50.6981C202.073 50.5395 203.285 50.406 204.483 50.3019L204.535 50.9002C203.346 51.0037 202.144 51.136 200.961 51.2935V51.2935ZM218.901 50.9489C217.715 50.8375 216.509 50.7515 215.314 50.6939L215.344 50.0939C216.547 50.1521 217.763 50.2386 218.957 50.3509L218.901 50.9489ZM208.124 50.6698L208.098 50.0698C209.205 50.0238 210.332 50.0003 211.449 50L211.722 50.0004L211.72 50.6011L211.449 50.6006C210.34 50.6009 209.221 50.6242 208.124 50.6698V50.6698Z" fill="#3F3D56"/>
<path d="M192.487 102.077V121.802C192.486 121.984 192.413 122.159 192.284 122.288C192.155 122.417 191.98 122.489 191.798 122.49H191.307V225.242C191.307 228.086 190.175 230.813 188.16 232.823C186.146 234.834 183.413 235.963 180.564 235.964H116.232C114.821 235.963 113.424 235.686 112.121 235.147C110.818 234.608 109.634 233.818 108.637 232.823C107.639 231.827 106.848 230.645 106.309 229.345C105.769 228.044 105.492 226.65 105.492 225.242V126.093H105.137C105.008 126.094 104.884 126.043 104.793 125.952C104.702 125.862 104.65 125.739 104.649 125.61V114.384C104.649 114.32 104.662 114.257 104.686 114.198C104.711 114.139 104.747 114.085 104.792 114.04C104.837 113.995 104.891 113.959 104.95 113.935C105.009 113.91 105.073 113.898 105.137 113.898H105.492V109.669H105.134C104.999 109.669 104.869 109.615 104.774 109.519C104.678 109.423 104.625 109.294 104.625 109.159V98.0862C104.626 97.9517 104.679 97.8228 104.775 97.7277C104.87 97.6326 104.999 97.579 105.134 97.5786H105.492V91.8066H105.128C105.068 91.8067 105.01 91.7951 104.955 91.7725C104.9 91.7499 104.85 91.7167 104.808 91.6748C104.766 91.633 104.733 91.5833 104.711 91.5286C104.688 91.4739 104.676 91.4153 104.676 91.3561V85.3138C104.676 85.194 104.723 85.0789 104.808 84.9939C104.893 84.9089 105.008 84.8609 105.128 84.8603H105.492V72.6255C105.492 69.7829 106.624 67.0567 108.638 65.0467C110.652 63.0367 113.383 61.9074 116.232 61.9073H180.564C183.413 61.9073 186.145 63.0364 188.16 65.0464C190.174 67.0564 191.306 69.7826 191.307 72.6255V101.39H191.798C191.98 101.39 192.155 101.463 192.284 101.592C192.413 101.72 192.486 101.895 192.487 102.077Z" fill="#3F3D56"/>
<path d="M151.497 67.4051H141.044C140.621 67.4051 140.279 67.7469 140.279 68.1685V69.0702C140.279 69.4918 140.621 69.8336 141.044 69.8336H151.497C151.92 69.8336 152.262 69.4918 152.262 69.0702V68.1685C152.262 67.7469 151.92 67.4051 151.497 67.4051Z" fill="#E6E8EC"/>
<path d="M155.454 69.9968C156.217 69.9968 156.835 69.3801 156.835 68.6193C156.835 67.8586 156.217 67.2419 155.454 67.2419C154.692 67.2419 154.074 67.8586 154.074 68.6193C154.074 69.3801 154.692 69.9968 155.454 69.9968Z" fill="#E6E8EC"/>
<path d="M186.163 74.7457V226.131C186.162 227.935 185.444 229.664 184.166 230.939C182.887 232.214 181.154 232.93 179.347 232.93H117.765C116.869 232.932 115.983 232.757 115.155 232.416C114.328 232.075 113.576 231.574 112.943 230.943C112.31 230.311 111.808 229.561 111.465 228.735C111.123 227.91 110.948 227.025 110.949 226.131V74.7457C110.949 73.8524 111.125 72.9679 111.468 72.1426C111.81 71.3173 112.312 70.5675 112.945 69.9358C113.578 69.3042 114.329 68.8031 115.156 68.4613C115.983 68.1195 116.87 67.9436 117.765 67.9436H126.982V69.1238C126.982 70.6093 127.573 72.0339 128.626 73.0842C129.678 74.1346 131.105 74.7247 132.594 74.7247H163.913C165.402 74.7247 166.829 74.1346 167.882 73.0842C168.934 72.0339 169.525 70.6093 169.525 69.1238V67.9436H179.347C180.242 67.9433 181.129 68.1191 181.956 68.4608C182.783 68.8025 183.534 69.3036 184.167 69.9353C184.8 70.5669 185.302 71.3169 185.645 72.1423C185.987 72.9677 186.163 73.8524 186.163 74.7457Z" fill="#67AAD5"/>
<path opacity="0.2" d="M183.768 117.571H113.955V151.506H183.768V117.571Z" fill="black"/>
<path d="M293.301 78.8302H223.489V112.766H293.301V78.8302Z" fill="#F2F2F2"/>
<path d="M183.768 169.008H113.955V202.944H183.768V169.008Z" fill="#3F3D56"/>
<path d="M176.546 92.4282C179.869 92.4282 182.564 89.7391 182.564 86.4219C182.564 83.1048 179.869 80.4156 176.546 80.4156C173.222 80.4156 170.527 83.1048 170.527 86.4219C170.527 89.7391 173.222 92.4282 176.546 92.4282Z" fill="white"/>
<path d="M179.254 86.2287H176.739V83.719H176.352V86.2287H173.837V86.6149H176.352V89.1247H176.739V86.6149H179.254V86.2287Z" fill="#3F3D56"/>
<path d="M285.477 74.3255H215.665V108.261H285.477V74.3255Z" fill="#3F3D56"/>
<path d="M246.829 97.1104C248.657 103.852 254.917 108.028 254.917 108.028C254.917 108.028 258.213 101.272 256.386 94.5304C254.558 87.7883 248.299 83.6128 248.299 83.6128C248.299 83.6128 245.002 90.3683 246.829 97.1104Z" fill="white"/>
<path d="M249.515 95.6615C254.53 100.533 255.142 108.023 255.142 108.023C255.142 108.023 247.624 107.613 242.609 102.741C237.595 97.8691 236.982 90.3799 236.982 90.3799C236.982 90.3799 244.5 90.7896 249.515 95.6615Z" fill="#67AAD5"/>
<path d="M142.063 192.31C143.891 199.052 150.15 203.228 150.15 203.228C150.15 203.228 153.447 196.472 151.62 189.73C149.792 182.988 143.532 178.812 143.532 178.812C143.532 178.812 140.236 185.568 142.063 192.31Z" fill="white"/>
<path d="M144.749 190.861C149.763 195.733 150.376 203.222 150.376 203.222C150.376 203.222 142.858 202.813 137.843 197.941C132.828 193.069 132.216 185.58 132.216 185.58C132.216 185.58 139.734 185.989 144.749 190.861Z" fill="#67AAD5"/>
<path d="M158.689 192.31C156.861 199.052 150.601 203.228 150.601 203.228C150.601 203.228 147.305 196.472 149.132 189.73C150.96 182.988 157.219 178.812 157.219 178.812C157.219 178.812 160.516 185.568 158.689 192.31Z" fill="white"/>
<path d="M156.003 190.861C150.988 195.733 150.376 203.222 150.376 203.222C150.376 203.222 157.894 202.813 162.909 197.941C167.923 193.069 168.536 185.58 168.536 185.58C168.536 185.58 161.018 185.989 156.003 190.861Z" fill="#67AAD5"/>
<path d="M231.312 151.074H225.372V145.146H231.312V151.074ZM225.829 150.618H230.855V145.602H225.829V150.618Z" fill="#3F3D56"/>
<path d="M75.3308 187.737L71.2789 183.401L75.623 179.358L79.6749 183.693L75.3308 187.737ZM71.9248 183.424L75.3533 187.092L79.029 183.671L75.6005 180.002L71.9248 183.424Z" fill="#2F2E41"/>
<path d="M78.5404 94.4571C80.2154 94.4571 81.5732 93.1019 81.5732 91.4303C81.5732 89.7587 80.2154 88.4036 78.5404 88.4036C76.8654 88.4036 75.5076 89.7587 75.5076 91.4303C75.5076 93.1019 76.8654 94.4571 78.5404 94.4571Z" fill="#D8400B"/>
<path d="M78.5403 100.174C76.8074 100.174 75.1135 99.6615 73.6727 98.7007C72.2319 97.7399 71.1089 96.3742 70.4457 94.7765C69.7826 93.1787 69.6091 91.4206 69.9472 89.7244C70.2852 88.0283 71.1197 86.4703 72.345 85.2474C73.5703 84.0245 75.1314 83.1917 76.831 82.8544C78.5306 82.517 80.2922 82.6901 81.8931 83.3519C83.4941 84.0137 84.8624 85.1345 85.8252 86.5724C86.7879 88.0104 87.3017 89.7009 87.3017 91.4303C87.2991 93.7486 86.3752 95.9711 84.7327 97.6104C83.0902 99.2496 80.8632 100.172 78.5403 100.174ZM78.5403 83.359C76.9407 83.359 75.3771 83.8323 74.0471 84.7192C72.7171 85.6061 71.6805 86.8667 71.0684 88.3415C70.4563 89.8164 70.2961 91.4393 70.6082 93.005C70.9202 94.5706 71.6905 96.0088 72.8216 97.1376C73.9526 98.2664 75.3937 99.0351 76.9625 99.3466C78.5313 99.658 80.1574 99.4982 81.6352 98.8873C83.113 98.2764 84.3761 97.2418 85.2648 95.9145C86.1534 94.5872 86.6278 93.0267 86.6278 91.4303C86.6253 89.2904 85.7725 87.2389 84.2563 85.7257C82.7401 84.2126 80.6845 83.3614 78.5403 83.359Z" fill="#2F2E41"/>
<path d="M270 235.387H90V235.988H270V235.387Z" fill="#3F3D56"/>
<path d="M198.813 112.165H129.001V146.101H198.813V112.165Z" fill="#3F3D56"/>
<path d="M164.252 123.8H163.651V146.147H164.252V123.8Z" fill="white"/>
<path d="M163.952 127.261C165.7 127.261 167.118 125.846 167.118 124.101C167.118 122.355 165.7 120.941 163.952 120.941C162.203 120.941 160.785 122.355 160.785 124.101C160.785 125.846 162.203 127.261 163.952 127.261Z" fill="#67AAD5"/>
<path d="M163.952 137.573C163.952 137.573 163.499 127.864 154.226 128.992L163.952 137.573Z" fill="white"/>
<path d="M260.864 204.48L222.139 216.571L173.966 186.234L173.964 186.232L173.806 186.134L173.78 186.117L173.397 185.878L168.81 182.997C168.819 182.92 168.83 182.844 168.845 182.771C168.915 182.415 169.078 182.083 169.317 181.81C169.4 181.712 169.491 181.621 169.589 181.538H169.591C169.635 181.501 169.68 181.464 169.728 181.43C169.775 181.393 169.825 181.359 169.877 181.326C170.764 180.732 172.101 180.48 173.494 180.404C176.503 180.262 179.496 180.909 182.176 182.283C187.591 185.016 199.23 190.394 201.045 187.1C203.425 182.781 176.382 134.634 176.382 134.634C174.156 128.923 175.785 127.057 176.806 126.47C176.837 126.453 176.867 126.435 176.895 126.42C177.003 126.365 177.115 126.317 177.23 126.278C177.29 126.256 177.352 126.238 177.414 126.224C177.431 126.219 177.447 126.216 177.464 126.213L181.051 130.972L181.105 131.043L181.298 131.3L181.356 131.378L203.101 160.219C236.417 142.298 247.883 190.23 247.883 190.23L260.864 204.48Z" fill="#FBBEBE"/>
<path d="M181.356 131.378C181.277 131.54 181.153 131.676 180.998 131.77C180.844 131.864 180.665 131.911 180.484 131.907C180.364 131.906 180.245 131.89 180.129 131.859C179.325 131.643 178.392 130.762 177.696 129.56C177.016 128.385 176.737 127.204 176.895 126.42C177.003 126.365 177.115 126.317 177.23 126.278C177.29 126.256 177.352 126.238 177.414 126.224C177.135 126.77 177.302 128.012 178.072 129.344C178.702 130.434 179.554 131.259 180.24 131.44C180.323 131.475 180.414 131.49 180.505 131.484C180.595 131.479 180.683 131.452 180.762 131.407C180.84 131.361 180.907 131.298 180.957 131.223C181.008 131.147 181.04 131.061 181.051 130.972L181.105 131.043L181.298 131.3L181.356 131.378Z" fill="#3F3D56"/>
<path d="M173.806 186.134L173.78 186.117L173.397 185.878C173.399 185.262 172.932 184.254 171.9 183.241C171.028 182.393 170.015 181.836 169.317 181.81C169.4 181.712 169.491 181.621 169.589 181.538H169.591C169.635 181.501 169.68 181.464 169.728 181.43C170.67 181.707 171.523 182.225 172.203 182.933C173.336 184.044 173.959 185.312 173.806 186.134Z" fill="#3F3D56"/>
</svg>
