<svg width="32" height="32" viewBox="0 0 32 32" fill="none" xmlns="http://www.w3.org/2000/svg">
<path fill-rule="evenodd" clip-rule="evenodd" d="M18.6004 3.00039C18.6004 1.56445 17.4363 0.400391 16.0004 0.400391C14.5645 0.400391 13.4004 1.56445 13.4004 3.00039V13.4004H3.00039C1.56445 13.4004 0.400391 14.5645 0.400391 16.0004C0.400391 17.4363 1.56445 18.6004 3.00039 18.6004H13.4004V29.0004C13.4004 30.4363 14.5645 31.6004 16.0004 31.6004C17.4363 31.6004 18.6004 30.4363 18.6004 29.0004V18.6004H29.0004C30.4363 18.6004 31.6004 17.4363 31.6004 16.0004C31.6004 14.5645 30.4363 13.4004 29.0004 13.4004H18.6004V3.00039Z" fill="#ABABAB"/>
</svg>
