<svg width="40" height="41" viewBox="0 0 40 41" fill="none" xmlns="http://www.w3.org/2000/svg">
<path fill-rule="evenodd" clip-rule="evenodd" d="M20 40.3999C31.0457 40.3999 40 31.4456 40 20.3999C40 9.35421 31.0457 0.399902 20 0.399902C8.9543 0.399902 0 9.35421 0 20.3999C0 31.4456 8.9543 40.3999 20 40.3999Z" fill="#3064CE"/>
<path d="M24.6234 11.4036L22.2249 11.3999C19.5302 11.3999 17.7888 13.1386 17.7888 15.8297V17.8722H15.3771C15.1688 17.8722 15 18.0366 15 18.2394V21.1987C15 21.4015 15.1689 21.5657 15.3771 21.5657H17.7888V29.0329C17.7888 29.2357 17.9575 29.3999 18.1659 29.3999H21.3124C21.5208 29.3999 21.6896 29.2355 21.6896 29.0329V21.5657H24.5093C24.7177 21.5657 24.8865 21.4015 24.8865 21.1987L24.8876 18.2394C24.8876 18.142 24.8478 18.0488 24.7772 17.9798C24.7066 17.9109 24.6103 17.8722 24.5103 17.8722H21.6896V16.1408C21.6896 15.3086 21.8933 14.8861 23.0073 14.8861L24.623 14.8856C24.8312 14.8856 25 14.7211 25 14.5185V11.7707C25 11.5682 24.8314 11.404 24.6234 11.4036Z" fill="white"/>
</svg>
