<svg width="40" height="41" viewBox="0 0 40 41" fill="none" xmlns="http://www.w3.org/2000/svg">
<path fill-rule="evenodd" clip-rule="evenodd" d="M20 40.3999C31.0457 40.3999 40 31.4456 40 20.3999C40 9.35421 31.0457 0.399902 20 0.399902C8.9543 0.399902 0 9.35421 0 20.3999C0 31.4456 8.9543 40.3999 20 40.3999Z" fill="#48A9F2"/>
<path d="M28.9801 15.0675C28.9558 15.0384 28.9156 15.0286 28.8813 15.0444C28.373 15.2724 27.8383 15.4363 27.2876 15.5331C27.8723 15.0884 28.3079 14.4727 28.5313 13.7666C28.5421 13.7328 28.5309 13.6958 28.5036 13.6738C28.4761 13.6518 28.438 13.649 28.4078 13.6671C27.7493 14.062 27.0362 14.3403 26.2871 14.4947C25.6234 13.7983 24.6966 13.3999 23.7374 13.3999C21.7866 13.3999 20.1998 15.0043 20.1998 16.9764C20.1998 17.2149 20.2226 17.4512 20.2678 17.6805C17.5659 17.5119 15.0396 16.2004 13.3218 14.0702C13.3042 14.0484 13.2775 14.0363 13.2497 14.0391C13.222 14.0412 13.1973 14.057 13.1833 14.0812C12.8699 14.6247 12.7043 15.2467 12.7043 15.8793C12.7043 16.9759 13.1971 18.0011 14.0361 18.6776C13.6042 18.6251 13.1823 18.4876 12.8018 18.2741C12.7763 18.2595 12.7444 18.2597 12.7188 18.2746C12.6932 18.2894 12.677 18.3169 12.6763 18.3468L12.676 18.3926C12.676 19.9674 13.7024 21.3501 15.1627 21.8092C14.778 21.8719 14.379 21.8677 13.9867 21.792C13.9578 21.7865 13.9275 21.7966 13.9076 21.8191C13.888 21.8416 13.8814 21.8731 13.8904 21.9017C14.3283 23.2835 15.545 24.2526 16.9613 24.3733C15.7799 25.2484 14.3835 25.7094 12.9081 25.7094C12.6363 25.7094 12.3626 25.6931 12.0944 25.6612C12.0561 25.6568 12.0182 25.6799 12.0049 25.717C11.9917 25.7545 12.0058 25.7964 12.0389 25.8177C13.6355 26.853 15.4816 27.3999 17.3779 27.3999C23.5807 27.3999 27.2872 22.3058 27.2872 17.3811C27.2872 17.244 27.2846 17.1075 27.2792 16.9715C27.9483 16.4766 28.5228 15.8709 28.9859 15.1698C29.0066 15.1384 29.0044 15.0967 28.9801 15.0675Z" fill="white"/>
</svg>
