<svg width="40" height="41" viewBox="0 0 40 41" fill="none" xmlns="http://www.w3.org/2000/svg">
<path fill-rule="evenodd" clip-rule="evenodd" d="M20 40.3999C31.0457 40.3999 40 31.4456 40 20.3999C40 9.35421 31.0457 0.399902 20 0.399902C8.9543 0.399902 0 9.35421 0 20.3999C0 31.4456 8.9543 40.3999 20 40.3999Z" fill="#BD081C"/>
<path fill-rule="evenodd" clip-rule="evenodd" d="M19.9993 10.3999C14.4769 10.3999 10 14.8768 10 20.3992C10 24.6355 12.6356 28.2537 16.3552 29.7106C16.2679 28.9195 16.1889 27.706 16.39 26.8423C16.5717 26.0619 17.5625 21.872 17.5625 21.872C17.5625 21.872 17.2634 21.2729 17.2634 20.3874C17.2634 18.997 18.0693 17.9589 19.0728 17.9589C19.9259 17.9589 20.338 18.5994 20.338 19.3674C20.338 20.2254 19.7917 21.5081 19.5098 22.6968C19.2743 23.692 20.0089 24.5037 20.9906 24.5037C22.7678 24.5037 24.1339 22.6297 24.1339 19.9247C24.1339 17.5306 22.4136 15.8566 19.9571 15.8566C17.112 15.8566 15.442 17.9906 15.442 20.196C15.442 21.0555 15.773 21.977 16.1861 22.478C16.2678 22.577 16.2798 22.6638 16.2555 22.7648C16.1796 23.0806 16.0109 23.7598 15.9778 23.8988C15.9341 24.0819 15.8328 24.1207 15.6434 24.0325C14.3944 23.4512 13.6137 21.6253 13.6137 20.1588C13.6137 17.0045 15.9055 14.1077 20.2207 14.1077C23.6893 14.1077 26.3851 16.5795 26.3851 19.8829C26.3851 23.329 24.2121 26.1024 21.1963 26.1024C20.183 26.1024 19.2305 25.576 18.9044 24.9542C18.9044 24.9542 18.403 26.8634 18.2815 27.3313C18.0557 28.1998 17.4463 29.2885 17.0387 29.9527C17.9743 30.2424 18.9685 30.3986 19.9993 30.3986C25.5219 30.3986 29.9988 25.9217 29.9988 20.3992C29.9988 14.8768 25.5219 10.3999 19.9993 10.3999Z" fill="#FFFFFE"/>
</svg>
