<svg width="40" height="41" viewBox="0 0 40 41" fill="none" xmlns="http://www.w3.org/2000/svg">
<path fill-rule="evenodd" clip-rule="evenodd" d="M20 40.3999C31.0457 40.3999 40 31.4456 40 20.3999C40 9.35421 31.0457 0.399902 20 0.399902C8.9543 0.399902 0 9.35421 0 20.3999C0 31.4456 8.9543 40.3999 20 40.3999Z" fill="#282F36"/>
<path fill-rule="evenodd" clip-rule="evenodd" d="M19.9969 10.4062C17.2819 10.4062 16.9414 10.4178 15.8752 10.4664C14.8111 10.5149 14.0844 10.6839 13.4485 10.9311C12.7912 11.1865 12.2337 11.5284 11.6779 12.0841C11.1221 12.6399 10.7803 13.1974 10.5248 13.8548C10.2777 14.4907 10.1087 15.2174 10.0602 16.2814C10.0115 17.3477 10 17.6881 10 20.4031C10 23.1181 10.0115 23.4585 10.0602 24.5248C10.1087 25.5888 10.2777 26.3155 10.5248 26.9514C10.7803 27.6088 11.1221 28.1663 11.6779 28.7221C12.2337 29.2778 12.7912 29.6197 13.4485 29.8751C14.0844 30.1222 14.8111 30.2912 15.8752 30.3398C16.9414 30.3884 17.2819 30.3999 19.9969 30.3999C22.7118 30.3999 23.0523 30.3884 24.1185 30.3398C25.1826 30.2912 25.9093 30.1222 26.5452 29.8751C27.2025 29.6197 27.76 29.2778 28.3158 28.7221C28.8716 28.1663 29.2134 27.6088 29.4689 26.9514C29.716 26.3155 29.885 25.5888 29.9335 24.5248C29.9822 23.4585 29.9937 23.1181 29.9937 20.4031C29.9937 17.6881 29.9822 17.3477 29.9335 16.2814C29.885 15.2174 29.716 14.4907 29.4689 13.8548C29.2134 13.1974 28.8716 12.6399 28.3158 12.0841C27.76 11.5284 27.2025 11.1865 26.5452 10.9311C25.9093 10.6839 25.1826 10.5149 24.1185 10.4664C23.0523 10.4178 22.7118 10.4062 19.9969 10.4062ZM19.9969 12.2075C22.6661 12.2075 22.9823 12.2177 24.0364 12.2658C25.0111 12.3102 25.5404 12.4731 25.8927 12.61C26.3593 12.7913 26.6923 13.008 27.0421 13.3578C27.392 13.7076 27.6086 14.0406 27.79 14.5072C27.9269 14.8595 28.0897 15.3888 28.1342 16.3635C28.1823 17.4176 28.1925 17.7338 28.1925 20.4031C28.1925 23.0724 28.1823 23.3886 28.1342 24.4427C28.0897 25.4174 27.9269 25.9467 27.79 26.2989C27.6086 26.7656 27.392 27.0986 27.0421 27.4484C26.6923 27.7982 26.3593 28.0149 25.8927 28.1962C25.5404 28.3331 25.0111 28.496 24.0364 28.5404C22.9825 28.5885 22.6663 28.5987 19.9969 28.5987C17.3274 28.5987 17.0113 28.5885 15.9573 28.5404C14.9826 28.496 14.4533 28.3331 14.101 28.1962C13.6344 28.0149 13.3013 27.7982 12.9515 27.4484C12.6017 27.0986 12.3851 26.7656 12.2037 26.2989C12.0668 25.9467 11.904 25.4174 11.8595 24.4427C11.8114 23.3886 11.8012 23.0724 11.8012 20.4031C11.8012 17.7338 11.8114 17.4176 11.8595 16.3635C11.904 15.3888 12.0668 14.8595 12.2037 14.5072C12.3851 14.0406 12.6017 13.7076 12.9515 13.3578C13.3013 13.008 13.6344 12.7913 14.101 12.61C14.4533 12.4731 14.9826 12.3102 15.9573 12.2658C17.0114 12.2177 17.3276 12.2075 19.9969 12.2075Z" fill="white"/>
<path fill-rule="evenodd" clip-rule="evenodd" d="M19.9968 23.7353C18.1564 23.7353 16.6645 22.2434 16.6645 20.4031C16.6645 18.5627 18.1564 17.0708 19.9968 17.0708C21.8372 17.0708 23.3291 18.5627 23.3291 20.4031C23.3291 22.2434 21.8372 23.7353 19.9968 23.7353ZM19.9968 15.2695C17.1616 15.2695 14.8633 17.5679 14.8633 20.4031C14.8633 23.2382 17.1616 25.5366 19.9968 25.5366C22.832 25.5366 25.1303 23.2382 25.1303 20.4031C25.1303 17.5679 22.832 15.2695 19.9968 15.2695Z" fill="white"/>
<path fill-rule="evenodd" clip-rule="evenodd" d="M26.5328 15.0668C26.5328 15.7294 25.9957 16.2664 25.3331 16.2664C24.6706 16.2664 24.1335 15.7294 24.1335 15.0668C24.1335 14.4043 24.6706 13.8672 25.3331 13.8672C25.9957 13.8672 26.5328 14.4043 26.5328 15.0668Z" fill="white"/>
</svg>
