<svg width="14" height="16" viewBox="0 0 14 16" fill="none" xmlns="http://www.w3.org/2000/svg">
<path fill-rule="evenodd" clip-rule="evenodd" d="M10.7059 3.78947C10.7059 5.88234 9.0467 7.57895 7 7.57895C4.9533 7.57895 3.29412 5.88234 3.29412 3.78947C3.29412 1.69661 4.9533 0 7 0C9.0467 0 10.7059 1.69661 10.7059 3.78947ZM9.88235 8.42105C12.3003 9.30687 14 10.9999 14 13.8947C14 13.8947 11.8573 16 7 16C2.14266 16 0 13.8947 0 13.8947C0 10.9761 1.66767 9.29498 4.11765 8.42105C4.18369 8.45231 4.25035 8.48429 4.31779 8.51664C5.04982 8.8678 5.87398 9.26316 7 9.26316C7.99737 9.26316 8.71862 8.93877 9.4051 8.63003C9.56505 8.55809 9.72312 8.48699 9.88235 8.42105Z" fill="white"/>
</svg>
