<svg width="276" height="283" viewBox="0 0 276 283" fill="none" xmlns="http://www.w3.org/2000/svg">
<path d="M249.269 96.985L142.419 24.7614C141.767 24.3992 141.043 24.037 140.318 23.8197C139.666 23.6024 138.869 23.5299 138 23.5299C137.131 23.5299 136.406 23.6024 135.682 23.8197C134.957 24.037 134.233 24.3992 133.581 24.7614L26.7307 96.985C25.5717 97.7819 24.7024 98.7961 24.1228 99.9551C23.5433 100.969 23.2535 102.273 23.2535 103.722V251.357C23.2535 253.602 24.1228 255.631 25.6441 257.08C27.0929 258.528 29.1213 259.47 31.3669 259.47H244.633C246.879 259.47 248.907 258.528 250.428 257.08C251.877 255.631 252.746 253.602 252.746 251.357V103.722C252.746 102.273 252.457 100.969 251.877 99.9551C251.298 98.7961 250.428 97.7819 249.269 96.985ZM155.313 5.49212L262.526 77.9331C266.655 80.8307 270.06 84.6701 272.45 89.2338C274.696 93.5803 276 98.5787 276 103.722V251.357C276 259.977 272.523 267.873 266.8 273.524C261.15 279.174 253.326 282.724 244.633 282.724H31.3669C22.674 282.724 14.8504 279.174 9.2 273.524C3.47717 267.873 3.8147e-06 259.977 3.8147e-06 251.357V103.722C3.8147e-06 98.5787 1.30394 93.5803 3.62205 89.2338C5.94016 84.6701 9.34488 80.8307 13.474 77.9331C49.4047 54.0276 84.9008 29.3252 120.831 5.41967C123.367 3.75353 126.12 2.4496 129.017 1.5803C131.915 0.711013 134.957 0.276367 138 0.276367C141.042 0.276367 144.085 0.711013 146.983 1.5803C149.88 2.4496 152.706 3.75353 155.168 5.41967L155.313 5.49212Z" fill="white"/>
<path d="M177.046 233.246H194.504V207.965H195.301L211.89 233.246H232.535L210.513 202.169L232.318 173.917H211.672L195.301 197.026H194.504V173.917H177.046V233.246Z" fill="white"/>
<path d="M136.551 220.135C127.206 220.135 120.759 213.615 120.759 203.546C120.759 193.621 127.206 187.029 136.551 187.029C145.969 187.029 152.343 193.621 152.343 203.546C152.343 213.615 145.969 220.135 136.551 220.135ZM136.551 234.478C156.4 234.478 169.802 222.453 169.802 203.546C169.802 184.711 156.4 172.758 136.551 172.758C116.702 172.758 103.228 184.711 103.228 203.546C103.228 222.453 116.702 234.478 136.551 234.478Z" fill="white"/>
<path d="M62.0095 233.246H79.5402V188.261H98.085V173.917H43.4646V188.261H62.0095V233.246Z" fill="white"/>
<path d="M122.425 157.401C139.014 157.401 149.808 149.795 149.808 137.987C149.808 123.643 136.189 121.543 126.047 120.021C119.165 119.007 113.298 118.283 113.298 113.791C113.298 110.459 116.63 108.141 122.135 108.141C128.148 108.141 131.987 111.184 131.987 116.399H147.852C147.852 104.084 137.348 95.6812 121.556 95.6812C105.909 95.6812 95.8394 103.287 95.8394 115.023C95.8394 130.308 111.197 131.539 121.411 132.916C127.496 133.785 132.35 134.799 132.35 139.073C132.35 142.695 128.728 144.796 123.077 144.796C115.978 144.796 111.849 141.536 111.776 136.61H95.4047C95.4047 148.853 106.198 157.401 122.425 157.401Z" fill="white"/>
<path d="M62.0095 156.169H79.5402V96.8402H62.0095V156.169Z" fill="white"/>
</svg>
